M48
; DRILL file {KiCad (5.1.6)-1} date 07/19/20 23:04:10
; FORMAT={-:-/ absolute / metric / decimal}
; #@! TF.CreationDate,2020-07-19T23:04:10+02:00
; #@! TF.GenerationSoftware,Kicad,Pcbnew,(5.1.6)-1
FMAT,2
METRIC
T1C0.600
T2C0.800
T3C1.000
T4C3.200
%
G90
G05
T1
X140.303Y-123.815
T2
X158.0Y-89.713
X158.0Y-97.333
X160.54Y-89.713
X160.54Y-97.333
X163.08Y-89.713
X163.08Y-97.333
X165.62Y-89.713
X165.62Y-97.333
X168.16Y-89.713
X168.16Y-97.333
X170.7Y-89.713
X170.7Y-97.333
X173.24Y-89.713
X173.24Y-97.333
X175.78Y-89.713
X175.78Y-97.333
X146.526Y-97.272
X146.526Y-107.432
X137.128Y-97.145
X137.128Y-107.305
X141.494Y-97.173
X141.494Y-107.333
T3
X157.988Y-104.648
X157.988Y-119.888
X160.528Y-104.648
X160.528Y-119.888
X163.068Y-104.648
X163.068Y-119.888
X165.608Y-104.648
X165.608Y-119.888
X168.148Y-104.648
X168.148Y-119.888
X170.688Y-104.648
X170.688Y-119.888
X173.228Y-104.648
X173.228Y-119.888
X175.768Y-104.648
X175.768Y-119.888
X178.308Y-104.648
X178.308Y-119.888
X180.848Y-104.648
X180.848Y-119.888
X183.388Y-104.648
X183.388Y-119.888
X185.928Y-104.648
X185.928Y-119.888
X188.468Y-104.648
X188.468Y-119.888
X191.008Y-104.648
X191.008Y-119.888
X193.548Y-104.648
X193.548Y-119.888
T4
X129.0Y-99.0
X150.667Y-77.333
X177.333Y-77.333
X129.0Y-125.667
X199.0Y-125.667
X150.667Y-147.333
X177.333Y-147.333
X199.0Y-99.0
T0
M30
