%TF.GenerationSoftware,KiCad,Pcbnew,(5.1.6)-1*%
%TF.CreationDate,2020-07-19T23:04:14+02:00*%
%TF.ProjectId,bedlight-nucleo,6265646c-6967-4687-942d-6e75636c656f,rev?*%
%TF.SameCoordinates,Original*%
%TF.FileFunction,Legend,Top*%
%TF.FilePolarity,Positive*%
%FSLAX46Y46*%
G04 Gerber Fmt 4.6, Leading zero omitted, Abs format (unit mm)*
G04 Created by KiCad (PCBNEW (5.1.6)-1) date 2020-07-19 23:04:14*
%MOMM*%
%LPD*%
G01*
G04 APERTURE LIST*
%ADD10C,0.150000*%
%ADD11C,0.120000*%
G04 APERTURE END LIST*
D10*
%TO.C,U1*%
X202548000Y-115648000D02*
X202548000Y-108648000D01*
X201548000Y-115648000D02*
X202548000Y-115648000D01*
X201548000Y-108648000D02*
X202548000Y-108648000D01*
D11*
X152988000Y-121288000D02*
X197488000Y-121288000D01*
X152988000Y-103248000D02*
X152988000Y-121288000D01*
X156718000Y-105918000D02*
X156718000Y-103248000D01*
X192278000Y-105918000D02*
X156718000Y-105918000D01*
X192278000Y-105918000D02*
X192278000Y-103248000D01*
X156718000Y-118618000D02*
X156718000Y-121288000D01*
X194818000Y-118618000D02*
X156718000Y-118618000D01*
X194818000Y-118618000D02*
X194818000Y-121288000D01*
X197488000Y-103248000D02*
X194818000Y-103248000D01*
X192278000Y-103248000D02*
X152988000Y-103248000D01*
X194818000Y-105918000D02*
X194818000Y-103248000D01*
X192278000Y-105918000D02*
X194818000Y-105918000D01*
D10*
X197488000Y-103248000D02*
X201548000Y-103248000D01*
X197488000Y-121288000D02*
X201548000Y-121288000D01*
X201548000Y-121288000D02*
X201548000Y-103248000D01*
D11*
%TO.C,U2*%
X156670000Y-94523334D02*
X156670000Y-96173334D01*
X156670000Y-96173334D02*
X177110000Y-96173334D01*
X177110000Y-96173334D02*
X177110000Y-90873334D01*
X177110000Y-90873334D02*
X156670000Y-90873334D01*
X156670000Y-90873334D02*
X156670000Y-92523334D01*
X156670000Y-92523334D02*
G75*
G02*
X156670000Y-94523334I0J-1000000D01*
G01*
%TO.C,SW4*%
X195710086Y-148583046D02*
X196000000Y-148872960D01*
X196000000Y-148872960D02*
X200539626Y-144333334D01*
X200539626Y-144333334D02*
X200341636Y-144135344D01*
X199118341Y-142912049D02*
X197421285Y-141214993D01*
X196289914Y-140083622D02*
X196000000Y-139793708D01*
X196000000Y-139793708D02*
X191460374Y-144333334D01*
X191460374Y-144333334D02*
X191750288Y-144623248D01*
X192881659Y-145754619D02*
X194578715Y-147451675D01*
%TO.C,SW3*%
X200249712Y-80623248D02*
X200539626Y-80333334D01*
X200539626Y-80333334D02*
X196000000Y-75793708D01*
X196000000Y-75793708D02*
X195802010Y-75991698D01*
X194578715Y-77214993D02*
X192881659Y-78912049D01*
X191750288Y-80043420D02*
X191460374Y-80333334D01*
X191460374Y-80333334D02*
X196000000Y-84872960D01*
X196000000Y-84872960D02*
X196289914Y-84583046D01*
X197421285Y-83451675D02*
X199118341Y-81754619D01*
%TO.C,SW2*%
X131710086Y-84583046D02*
X132000000Y-84872960D01*
X132000000Y-84872960D02*
X136539626Y-80333334D01*
X136539626Y-80333334D02*
X136341636Y-80135344D01*
X135118341Y-78912049D02*
X133421285Y-77214993D01*
X132289914Y-76083622D02*
X132000000Y-75793708D01*
X132000000Y-75793708D02*
X127460374Y-80333334D01*
X127460374Y-80333334D02*
X127750288Y-80623248D01*
X128881659Y-81754619D02*
X130578715Y-83451675D01*
%TO.C,SW1*%
X136249712Y-144623248D02*
X136539626Y-144333334D01*
X136539626Y-144333334D02*
X132000000Y-139793708D01*
X132000000Y-139793708D02*
X131802010Y-139991698D01*
X130578715Y-141214993D02*
X128881659Y-142912049D01*
X127750288Y-144043420D02*
X127460374Y-144333334D01*
X127460374Y-144333334D02*
X132000000Y-148872960D01*
X132000000Y-148872960D02*
X132289914Y-148583046D01*
X133421285Y-147451675D02*
X135118341Y-145754619D01*
%TO.C,R3*%
X145156000Y-105622334D02*
X147896000Y-105622334D01*
X147896000Y-105622334D02*
X147896000Y-99082334D01*
X147896000Y-99082334D02*
X145156000Y-99082334D01*
X145156000Y-99082334D02*
X145156000Y-105622334D01*
X146526000Y-106392334D02*
X146526000Y-105622334D01*
X146526000Y-98312334D02*
X146526000Y-99082334D01*
%TO.C,R2*%
X140124000Y-105523334D02*
X142864000Y-105523334D01*
X142864000Y-105523334D02*
X142864000Y-98983334D01*
X142864000Y-98983334D02*
X140124000Y-98983334D01*
X140124000Y-98983334D02*
X140124000Y-105523334D01*
X141494000Y-106293334D02*
X141494000Y-105523334D01*
X141494000Y-98213334D02*
X141494000Y-98983334D01*
%TO.C,R1*%
X135758000Y-105495334D02*
X138498000Y-105495334D01*
X138498000Y-105495334D02*
X138498000Y-98955334D01*
X138498000Y-98955334D02*
X135758000Y-98955334D01*
X135758000Y-98955334D02*
X135758000Y-105495334D01*
X137128000Y-106265334D02*
X137128000Y-105495334D01*
X137128000Y-98185334D02*
X137128000Y-98955334D01*
%TO.C,H8*%
D10*
X176571428Y-143985714D02*
X176571428Y-142985714D01*
X176571428Y-143461905D02*
X177142856Y-143461905D01*
X177142856Y-143985714D02*
X177142856Y-142985714D01*
X177761904Y-143414286D02*
X177666666Y-143366667D01*
X177619047Y-143319048D01*
X177571428Y-143223810D01*
X177571428Y-143176191D01*
X177619047Y-143080953D01*
X177666666Y-143033334D01*
X177761904Y-142985714D01*
X177952380Y-142985714D01*
X178047618Y-143033334D01*
X178095237Y-143080953D01*
X178142856Y-143176191D01*
X178142856Y-143223810D01*
X178095237Y-143319048D01*
X178047618Y-143366667D01*
X177952380Y-143414286D01*
X177761904Y-143414286D01*
X177666666Y-143461905D01*
X177619047Y-143509524D01*
X177571428Y-143604762D01*
X177571428Y-143795238D01*
X177619047Y-143890476D01*
X177666666Y-143938095D01*
X177761904Y-143985714D01*
X177952380Y-143985714D01*
X178047618Y-143938095D01*
X178095237Y-143890476D01*
X178142856Y-143795238D01*
X178142856Y-143604762D01*
X178095237Y-143509524D01*
X178047618Y-143461905D01*
X177952380Y-143414286D01*
%TO.C,H7*%
X198238095Y-95652380D02*
X198238095Y-94652380D01*
X198238095Y-95128571D02*
X198809523Y-95128571D01*
X198809523Y-95652380D02*
X198809523Y-94652380D01*
X199190476Y-94652380D02*
X199857142Y-94652380D01*
X199428571Y-95652380D01*
%TO.C,H6*%
X149904761Y-143985714D02*
X149904761Y-142985714D01*
X149904761Y-143461905D02*
X150476189Y-143461905D01*
X150476189Y-143985714D02*
X150476189Y-142985714D01*
X151380951Y-142985714D02*
X151190475Y-142985714D01*
X151095237Y-143033334D01*
X151047618Y-143080953D01*
X150952380Y-143223810D01*
X150904761Y-143414286D01*
X150904761Y-143795238D01*
X150952380Y-143890476D01*
X150999999Y-143938095D01*
X151095237Y-143985714D01*
X151285713Y-143985714D01*
X151380951Y-143938095D01*
X151428570Y-143890476D01*
X151476189Y-143795238D01*
X151476189Y-143557143D01*
X151428570Y-143461905D01*
X151380951Y-143414286D01*
X151285713Y-143366667D01*
X151095237Y-143366667D01*
X150999999Y-143414286D01*
X150952380Y-143461905D01*
X150904761Y-143557143D01*
%TO.C,H5*%
X198238095Y-122319047D02*
X198238095Y-121319047D01*
X198238095Y-121795238D02*
X198809523Y-121795238D01*
X198809523Y-122319047D02*
X198809523Y-121319047D01*
X199761904Y-121319047D02*
X199285714Y-121319047D01*
X199238095Y-121795238D01*
X199285714Y-121747619D01*
X199380952Y-121700000D01*
X199619047Y-121700000D01*
X199714285Y-121747619D01*
X199761904Y-121795238D01*
X199809523Y-121890476D01*
X199809523Y-122128571D01*
X199761904Y-122223809D01*
X199714285Y-122271428D01*
X199619047Y-122319047D01*
X199380952Y-122319047D01*
X199285714Y-122271428D01*
X199238095Y-122223809D01*
%TO.C,H4*%
X128238095Y-122319047D02*
X128238095Y-121319047D01*
X128238095Y-121795238D02*
X128809523Y-121795238D01*
X128809523Y-122319047D02*
X128809523Y-121319047D01*
X129714285Y-121652381D02*
X129714285Y-122319047D01*
X129476190Y-121271428D02*
X129238095Y-121985714D01*
X129857142Y-121985714D01*
%TO.C,H3*%
X149904761Y-73985714D02*
X149904761Y-72985714D01*
X149904761Y-73461905D02*
X150476189Y-73461905D01*
X150476189Y-73985714D02*
X150476189Y-72985714D01*
X150857142Y-72985714D02*
X151476189Y-72985714D01*
X151142856Y-73366667D01*
X151285713Y-73366667D01*
X151380951Y-73414286D01*
X151428570Y-73461905D01*
X151476189Y-73557143D01*
X151476189Y-73795238D01*
X151428570Y-73890476D01*
X151380951Y-73938095D01*
X151285713Y-73985714D01*
X150999999Y-73985714D01*
X150904761Y-73938095D01*
X150857142Y-73890476D01*
%TO.C,H2*%
X128238095Y-95652380D02*
X128238095Y-94652380D01*
X128238095Y-95128571D02*
X128809523Y-95128571D01*
X128809523Y-95652380D02*
X128809523Y-94652380D01*
X129238095Y-94747619D02*
X129285714Y-94700000D01*
X129380952Y-94652380D01*
X129619047Y-94652380D01*
X129714285Y-94700000D01*
X129761904Y-94747619D01*
X129809523Y-94842857D01*
X129809523Y-94938095D01*
X129761904Y-95080952D01*
X129190476Y-95652380D01*
X129809523Y-95652380D01*
%TO.C,H1*%
X176571428Y-73985714D02*
X176571428Y-72985714D01*
X176571428Y-73461905D02*
X177142856Y-73461905D01*
X177142856Y-73985714D02*
X177142856Y-72985714D01*
X178142856Y-73985714D02*
X177571428Y-73985714D01*
X177857142Y-73985714D02*
X177857142Y-72985714D01*
X177761904Y-73128572D01*
X177666666Y-73223810D01*
X177571428Y-73271429D01*
%TO.C,U1*%
X155000380Y-113409904D02*
X155809904Y-113409904D01*
X155905142Y-113362285D01*
X155952761Y-113314666D01*
X156000380Y-113219428D01*
X156000380Y-113028952D01*
X155952761Y-112933714D01*
X155905142Y-112886095D01*
X155809904Y-112838476D01*
X155000380Y-112838476D01*
X156000380Y-111838476D02*
X156000380Y-112409904D01*
X156000380Y-112124190D02*
X155000380Y-112124190D01*
X155143238Y-112219428D01*
X155238476Y-112314666D01*
X155286095Y-112409904D01*
%TO.C,U2*%
X155122380Y-94285238D02*
X155931904Y-94285238D01*
X156027142Y-94237619D01*
X156074761Y-94190000D01*
X156122380Y-94094762D01*
X156122380Y-93904286D01*
X156074761Y-93809048D01*
X156027142Y-93761429D01*
X155931904Y-93713810D01*
X155122380Y-93713810D01*
X155217619Y-93285238D02*
X155170000Y-93237619D01*
X155122380Y-93142381D01*
X155122380Y-92904286D01*
X155170000Y-92809048D01*
X155217619Y-92761429D01*
X155312857Y-92713810D01*
X155408095Y-92713810D01*
X155550952Y-92761429D01*
X156122380Y-93332857D01*
X156122380Y-92713810D01*
%TO.C,SW4*%
X198341533Y-148560485D02*
X198476220Y-148493142D01*
X198644579Y-148324783D01*
X198678251Y-148223768D01*
X198678251Y-148156424D01*
X198644579Y-148055409D01*
X198577236Y-147988066D01*
X198476220Y-147954394D01*
X198408877Y-147954394D01*
X198307862Y-147988066D01*
X198139503Y-148089081D01*
X198038488Y-148122753D01*
X197971144Y-148122753D01*
X197870129Y-148089081D01*
X197802785Y-148021737D01*
X197769114Y-147920722D01*
X197769114Y-147853379D01*
X197802785Y-147752363D01*
X197971144Y-147584005D01*
X198105831Y-147516661D01*
X198307862Y-147247287D02*
X199183327Y-147786035D01*
X198812938Y-147146272D01*
X199452701Y-147516661D01*
X198913953Y-146641196D01*
X199722075Y-146304478D02*
X200193480Y-146775883D01*
X199284342Y-146203463D02*
X199621060Y-146876898D01*
X200058793Y-146439165D01*
%TO.C,SW3*%
X197769114Y-76678601D02*
X197836457Y-76813288D01*
X198004816Y-76981647D01*
X198105831Y-77015319D01*
X198173175Y-77015319D01*
X198274190Y-76981647D01*
X198341533Y-76914304D01*
X198375205Y-76813288D01*
X198375205Y-76745945D01*
X198341533Y-76644930D01*
X198240518Y-76476571D01*
X198206846Y-76375556D01*
X198206846Y-76308212D01*
X198240518Y-76207197D01*
X198307862Y-76139853D01*
X198408877Y-76106182D01*
X198476220Y-76106182D01*
X198577236Y-76139853D01*
X198745594Y-76308212D01*
X198812938Y-76442899D01*
X199082312Y-76644930D02*
X198543564Y-77520395D01*
X199183327Y-77150006D01*
X198812938Y-77789769D01*
X199688403Y-77251021D01*
X199890434Y-77453052D02*
X200328167Y-77890784D01*
X199823090Y-77924456D01*
X199924106Y-78025471D01*
X199957777Y-78126487D01*
X199957777Y-78193830D01*
X199924106Y-78294845D01*
X199755747Y-78463204D01*
X199654732Y-78496876D01*
X199587388Y-78496876D01*
X199486373Y-78463204D01*
X199284342Y-78261174D01*
X199250671Y-78160158D01*
X199250671Y-78092815D01*
%TO.C,SW2*%
X134341533Y-84560485D02*
X134476220Y-84493142D01*
X134644579Y-84324783D01*
X134678251Y-84223768D01*
X134678251Y-84156424D01*
X134644579Y-84055409D01*
X134577236Y-83988066D01*
X134476220Y-83954394D01*
X134408877Y-83954394D01*
X134307862Y-83988066D01*
X134139503Y-84089081D01*
X134038488Y-84122753D01*
X133971144Y-84122753D01*
X133870129Y-84089081D01*
X133802785Y-84021737D01*
X133769114Y-83920722D01*
X133769114Y-83853379D01*
X133802785Y-83752363D01*
X133971144Y-83584005D01*
X134105831Y-83516661D01*
X134307862Y-83247287D02*
X135183327Y-83786035D01*
X134812938Y-83146272D01*
X135452701Y-83516661D01*
X134913953Y-82641196D01*
X135216999Y-82472837D02*
X135216999Y-82405493D01*
X135250671Y-82304478D01*
X135419029Y-82136119D01*
X135520045Y-82102448D01*
X135587388Y-82102448D01*
X135688403Y-82136119D01*
X135755747Y-82203463D01*
X135823090Y-82338150D01*
X135823090Y-83146272D01*
X136260823Y-82708539D01*
%TO.C,SW1*%
X133769114Y-140678601D02*
X133836457Y-140813288D01*
X134004816Y-140981647D01*
X134105831Y-141015319D01*
X134173175Y-141015319D01*
X134274190Y-140981647D01*
X134341533Y-140914304D01*
X134375205Y-140813288D01*
X134375205Y-140745945D01*
X134341533Y-140644930D01*
X134240518Y-140476571D01*
X134206846Y-140375556D01*
X134206846Y-140308212D01*
X134240518Y-140207197D01*
X134307862Y-140139853D01*
X134408877Y-140106182D01*
X134476220Y-140106182D01*
X134577236Y-140139853D01*
X134745594Y-140308212D01*
X134812938Y-140442899D01*
X135082312Y-140644930D02*
X134543564Y-141520395D01*
X135183327Y-141150006D01*
X134812938Y-141789769D01*
X135688403Y-141251021D01*
X135621060Y-142597891D02*
X135216999Y-142193830D01*
X135419029Y-142395861D02*
X136126136Y-141688754D01*
X135957777Y-141722426D01*
X135823090Y-141722426D01*
X135722075Y-141688754D01*
%TO.C,R3*%
X144608380Y-102519000D02*
X144132190Y-102852334D01*
X144608380Y-103090429D02*
X143608380Y-103090429D01*
X143608380Y-102709476D01*
X143656000Y-102614238D01*
X143703619Y-102566619D01*
X143798857Y-102519000D01*
X143941714Y-102519000D01*
X144036952Y-102566619D01*
X144084571Y-102614238D01*
X144132190Y-102709476D01*
X144132190Y-103090429D01*
X143608380Y-102185667D02*
X143608380Y-101566619D01*
X143989333Y-101899953D01*
X143989333Y-101757095D01*
X144036952Y-101661857D01*
X144084571Y-101614238D01*
X144179809Y-101566619D01*
X144417904Y-101566619D01*
X144513142Y-101614238D01*
X144560761Y-101661857D01*
X144608380Y-101757095D01*
X144608380Y-102042810D01*
X144560761Y-102138048D01*
X144513142Y-102185667D01*
%TO.C,R2*%
X139576380Y-102420000D02*
X139100190Y-102753334D01*
X139576380Y-102991429D02*
X138576380Y-102991429D01*
X138576380Y-102610476D01*
X138624000Y-102515238D01*
X138671619Y-102467619D01*
X138766857Y-102420000D01*
X138909714Y-102420000D01*
X139004952Y-102467619D01*
X139052571Y-102515238D01*
X139100190Y-102610476D01*
X139100190Y-102991429D01*
X138671619Y-102039048D02*
X138624000Y-101991429D01*
X138576380Y-101896191D01*
X138576380Y-101658095D01*
X138624000Y-101562857D01*
X138671619Y-101515238D01*
X138766857Y-101467619D01*
X138862095Y-101467619D01*
X139004952Y-101515238D01*
X139576380Y-102086667D01*
X139576380Y-101467619D01*
%TO.C,R1*%
X135210380Y-102392000D02*
X134734190Y-102725334D01*
X135210380Y-102963429D02*
X134210380Y-102963429D01*
X134210380Y-102582476D01*
X134258000Y-102487238D01*
X134305619Y-102439619D01*
X134400857Y-102392000D01*
X134543714Y-102392000D01*
X134638952Y-102439619D01*
X134686571Y-102487238D01*
X134734190Y-102582476D01*
X134734190Y-102963429D01*
X135210380Y-101439619D02*
X135210380Y-102011048D01*
X135210380Y-101725334D02*
X134210380Y-101725334D01*
X134353238Y-101820572D01*
X134448476Y-101915810D01*
X134496095Y-102011048D01*
%TD*%
M02*
