%TF.GenerationSoftware,KiCad,Pcbnew,(5.1.6)-1*%
%TF.CreationDate,2020-07-19T23:04:13+02:00*%
%TF.ProjectId,bedlight-nucleo,6265646c-6967-4687-942d-6e75636c656f,rev?*%
%TF.SameCoordinates,Original*%
%TF.FileFunction,Copper,L2,Bot*%
%TF.FilePolarity,Positive*%
%FSLAX46Y46*%
G04 Gerber Fmt 4.6, Leading zero omitted, Abs format (unit mm)*
G04 Created by KiCad (PCBNEW (5.1.6)-1) date 2020-07-19 23:04:13*
%MOMM*%
%LPD*%
G01*
G04 APERTURE LIST*
%TA.AperFunction,ComponentPad*%
%ADD10C,5.600000*%
%TD*%
%TA.AperFunction,ComponentPad*%
%ADD11O,1.600000X1.600000*%
%TD*%
%TA.AperFunction,ComponentPad*%
%ADD12R,1.600000X1.600000*%
%TD*%
%TA.AperFunction,ComponentPad*%
%ADD13C,1.600000*%
%TD*%
%TA.AperFunction,SMDPad,CuDef*%
%ADD14C,6.200000*%
%TD*%
%TA.AperFunction,SMDPad,CuDef*%
%ADD15R,2.550000X1.200000*%
%TD*%
%TA.AperFunction,ViaPad*%
%ADD16C,1.000000*%
%TD*%
%TA.AperFunction,Conductor*%
%ADD17C,0.508000*%
%TD*%
%TA.AperFunction,NonConductor*%
%ADD18C,0.254000*%
%TD*%
G04 APERTURE END LIST*
D10*
%TO.P,H8,1*%
%TO.N,N/C*%
X177333333Y-147333334D03*
%TD*%
%TO.P,H7,1*%
%TO.N,N/C*%
X199000000Y-99000000D03*
%TD*%
%TO.P,H6,1*%
%TO.N,N/C*%
X150666666Y-147333334D03*
%TD*%
%TO.P,H5,1*%
%TO.N,N/C*%
X199000000Y-125666667D03*
%TD*%
%TO.P,H4,1*%
%TO.N,N/C*%
X129000000Y-125666667D03*
%TD*%
%TO.P,H3,1*%
%TO.N,N/C*%
X150666666Y-77333334D03*
%TD*%
%TO.P,H2,1*%
%TO.N,N/C*%
X129000000Y-99000000D03*
%TD*%
%TO.P,H1,1*%
%TO.N,N/C*%
X177333333Y-77333334D03*
%TD*%
D11*
%TO.P,U1,16*%
%TO.N,Net-(U1-Pad16)*%
X157988000Y-119888000D03*
%TO.P,U1,15*%
%TO.N,/LED_BLUE*%
X157988000Y-104648000D03*
%TO.P,U1,30*%
%TO.N,Net-(U1-Pad30)*%
X193548000Y-119888000D03*
%TO.P,U1,14*%
%TO.N,/LED_GREEN*%
X160528000Y-104648000D03*
%TO.P,U1,29*%
%TO.N,GND*%
X191008000Y-119888000D03*
%TO.P,U1,13*%
%TO.N,/LED_RED*%
X163068000Y-104648000D03*
%TO.P,U1,28*%
%TO.N,Net-(U1-Pad28)*%
X188468000Y-119888000D03*
%TO.P,U1,12*%
%TO.N,/OUT1*%
X165608000Y-104648000D03*
%TO.P,U1,27*%
%TO.N,+5V*%
X185928000Y-119888000D03*
%TO.P,U1,11*%
%TO.N,/OUT2*%
X168148000Y-104648000D03*
%TO.P,U1,26*%
%TO.N,/BUTTON4*%
X183388000Y-119888000D03*
%TO.P,U1,10*%
%TO.N,/OUT3*%
X170688000Y-104648000D03*
%TO.P,U1,25*%
%TO.N,/BUTTON3*%
X180848000Y-119888000D03*
%TO.P,U1,9*%
%TO.N,/OUT4*%
X173228000Y-104648000D03*
%TO.P,U1,24*%
%TO.N,/BUTTON2*%
X178308000Y-119888000D03*
%TO.P,U1,8*%
%TO.N,Net-(U1-Pad8)*%
X175768000Y-104648000D03*
%TO.P,U1,23*%
%TO.N,/BUTTON1*%
X175768000Y-119888000D03*
%TO.P,U1,7*%
%TO.N,Net-(U1-Pad7)*%
X178308000Y-104648000D03*
%TO.P,U1,22*%
%TO.N,Net-(U1-Pad22)*%
X173228000Y-119888000D03*
%TO.P,U1,6*%
%TO.N,Net-(U1-Pad6)*%
X180848000Y-104648000D03*
%TO.P,U1,21*%
%TO.N,Net-(U1-Pad21)*%
X170688000Y-119888000D03*
%TO.P,U1,5*%
%TO.N,Net-(U1-Pad5)*%
X183388000Y-104648000D03*
%TO.P,U1,20*%
%TO.N,Net-(U1-Pad20)*%
X168148000Y-119888000D03*
%TO.P,U1,4*%
%TO.N,GND*%
X185928000Y-104648000D03*
%TO.P,U1,19*%
%TO.N,Net-(U1-Pad19)*%
X165608000Y-119888000D03*
%TO.P,U1,3*%
%TO.N,Net-(U1-Pad3)*%
X188468000Y-104648000D03*
%TO.P,U1,18*%
%TO.N,Net-(U1-Pad18)*%
X163068000Y-119888000D03*
%TO.P,U1,2*%
%TO.N,Net-(U1-Pad2)*%
X191008000Y-104648000D03*
%TO.P,U1,17*%
%TO.N,Net-(U1-Pad17)*%
X160528000Y-119888000D03*
D12*
%TO.P,U1,1*%
%TO.N,Net-(U1-Pad1)*%
X193548000Y-104648000D03*
%TD*%
D11*
%TO.P,U2,16*%
%TO.N,Net-(R1-Pad2)*%
X158000000Y-89713334D03*
%TO.P,U2,8*%
%TO.N,GND*%
X175780000Y-97333334D03*
%TO.P,U2,15*%
%TO.N,Net-(R2-Pad2)*%
X160540000Y-89713334D03*
%TO.P,U2,7*%
%TO.N,/OUT4*%
X173240000Y-97333334D03*
%TO.P,U2,14*%
%TO.N,Net-(R3-Pad2)*%
X163080000Y-89713334D03*
%TO.P,U2,6*%
%TO.N,/OUT3*%
X170700000Y-97333334D03*
%TO.P,U2,13*%
%TO.N,Net-(U2-Pad13)*%
X165620000Y-89713334D03*
%TO.P,U2,5*%
%TO.N,/OUT2*%
X168160000Y-97333334D03*
%TO.P,U2,12*%
%TO.N,Net-(U2-Pad12)*%
X168160000Y-89713334D03*
%TO.P,U2,4*%
%TO.N,/OUT1*%
X165620000Y-97333334D03*
%TO.P,U2,11*%
%TO.N,Net-(U2-Pad11)*%
X170700000Y-89713334D03*
%TO.P,U2,3*%
%TO.N,/LED_RED*%
X163080000Y-97333334D03*
%TO.P,U2,10*%
%TO.N,Net-(U2-Pad10)*%
X173240000Y-89713334D03*
%TO.P,U2,2*%
%TO.N,/LED_GREEN*%
X160540000Y-97333334D03*
%TO.P,U2,9*%
%TO.N,Net-(U2-Pad9)*%
X175780000Y-89713334D03*
D12*
%TO.P,U2,1*%
%TO.N,/LED_BLUE*%
X158000000Y-97333334D03*
%TD*%
D11*
%TO.P,R3,2*%
%TO.N,Net-(R3-Pad2)*%
X146526000Y-97272334D03*
D13*
%TO.P,R3,1*%
%TO.N,Net-(D1-Pad3)*%
X146526000Y-107432334D03*
%TD*%
D11*
%TO.P,R2,2*%
%TO.N,Net-(R2-Pad2)*%
X141494000Y-97173334D03*
D13*
%TO.P,R2,1*%
%TO.N,Net-(D1-Pad2)*%
X141494000Y-107333334D03*
%TD*%
D11*
%TO.P,R1,2*%
%TO.N,Net-(R1-Pad2)*%
X137128000Y-97145334D03*
D13*
%TO.P,R1,1*%
%TO.N,Net-(D1-Pad1)*%
X137128000Y-107305334D03*
%TD*%
D14*
%TO.P,D1,7*%
%TO.N,N/C*%
X164000000Y-112333334D03*
D15*
%TO.P,D1,3*%
%TO.N,Net-(D1-Pad3)*%
X157875000Y-110633334D03*
%TO.P,D1,4*%
%TO.N,+5V*%
X170125000Y-110633334D03*
%TO.P,D1,2*%
%TO.N,Net-(D1-Pad2)*%
X157875000Y-112333334D03*
%TO.P,D1,5*%
%TO.N,+5V*%
X170125000Y-112333334D03*
%TO.P,D1,1*%
%TO.N,Net-(D1-Pad1)*%
X157875000Y-114033334D03*
%TO.P,D1,6*%
%TO.N,+5V*%
X170125000Y-114033334D03*
%TD*%
D16*
%TO.N,/BUTTON2*%
X140303000Y-123815334D03*
%TD*%
D17*
%TO.N,Net-(D1-Pad3)*%
X149727000Y-110633334D02*
X146526000Y-107432334D01*
X157875000Y-110633334D02*
X149727000Y-110633334D01*
%TO.N,+5V*%
X170125000Y-110633334D02*
X185541000Y-110633334D01*
X185541000Y-110633334D02*
X185928000Y-111020334D01*
X185758000Y-112333334D02*
X185928000Y-112163334D01*
X170125000Y-112333334D02*
X185758000Y-112333334D01*
X185928000Y-111020334D02*
X185928000Y-112163334D01*
X185893000Y-114033334D02*
X185928000Y-114068334D01*
X170125000Y-114033334D02*
X185893000Y-114033334D01*
X185928000Y-112163334D02*
X185928000Y-114068334D01*
X185928000Y-114068334D02*
X185928000Y-119050063D01*
X185928000Y-119888000D02*
X185928000Y-119050063D01*
%TO.N,Net-(D1-Pad2)*%
X146494000Y-112333334D02*
X141494000Y-107333334D01*
X157875000Y-112333334D02*
X146494000Y-112333334D01*
%TO.N,Net-(D1-Pad1)*%
X157875000Y-114033334D02*
X139411000Y-114033334D01*
X137128000Y-111750334D02*
X137128000Y-107305334D01*
X139411000Y-114033334D02*
X137128000Y-111750334D01*
%TO.N,Net-(R1-Pad2)*%
X137128000Y-97145334D02*
X137128000Y-92192334D01*
X139607000Y-89713334D02*
X158000000Y-89713334D01*
X137128000Y-92192334D02*
X139607000Y-89713334D01*
%TO.N,Net-(R2-Pad2)*%
X141494000Y-97173334D02*
X141494000Y-95192334D01*
X141494000Y-95192334D02*
X145256000Y-91430334D01*
X145256000Y-91430334D02*
X159861000Y-91430334D01*
X160540000Y-90751334D02*
X160540000Y-89713334D01*
X159861000Y-91430334D02*
X160540000Y-90751334D01*
%TO.N,Net-(R3-Pad2)*%
X146526000Y-97272334D02*
X146526000Y-95113334D01*
X146526000Y-95113334D02*
X148685000Y-92954334D01*
X148685000Y-92954334D02*
X162147000Y-92954334D01*
X163080000Y-92021334D02*
X163080000Y-89713334D01*
X162147000Y-92954334D02*
X163080000Y-92021334D01*
%TO.N,GND*%
X185928000Y-106553000D02*
X185928000Y-104648000D01*
X191008000Y-111633000D02*
X185928000Y-106553000D01*
X191008000Y-119888000D02*
X191008000Y-111633000D01*
%TO.N,/BUTTON2*%
X177006000Y-123815334D02*
X140303000Y-123815334D01*
X178308000Y-119888000D02*
X178308000Y-122513334D01*
X178308000Y-122513334D02*
X177006000Y-123815334D01*
%TD*%
D18*
G36*
X147231666Y-77671652D02*
G01*
X147363672Y-78335286D01*
X147622609Y-78960416D01*
X147998528Y-79523019D01*
X148476981Y-80001472D01*
X149039584Y-80377391D01*
X149664714Y-80636328D01*
X150328348Y-80768334D01*
X151004984Y-80768334D01*
X151668618Y-80636328D01*
X152293748Y-80377391D01*
X152856351Y-80001472D01*
X153334804Y-79523019D01*
X153710723Y-78960416D01*
X153969660Y-78335286D01*
X154101666Y-77671652D01*
X154101666Y-77127000D01*
X173898333Y-77127000D01*
X173898333Y-77671652D01*
X174030339Y-78335286D01*
X174289276Y-78960416D01*
X174665195Y-79523019D01*
X175143648Y-80001472D01*
X175706251Y-80377391D01*
X176331381Y-80636328D01*
X176995015Y-80768334D01*
X177671651Y-80768334D01*
X178335285Y-80636328D01*
X178960415Y-80377391D01*
X179523018Y-80001472D01*
X180001471Y-79523019D01*
X180377390Y-78960416D01*
X180636327Y-78335286D01*
X180768333Y-77671652D01*
X180768333Y-77127000D01*
X199873000Y-77127000D01*
X199873000Y-95671356D01*
X199338318Y-95565000D01*
X198661682Y-95565000D01*
X197998048Y-95697006D01*
X197372918Y-95955943D01*
X196810315Y-96331862D01*
X196331862Y-96810315D01*
X195955943Y-97372918D01*
X195697006Y-97998048D01*
X195565000Y-98661682D01*
X195565000Y-99338318D01*
X195697006Y-100001952D01*
X195955943Y-100627082D01*
X196331862Y-101189685D01*
X196810315Y-101668138D01*
X197372918Y-102044057D01*
X197998048Y-102302994D01*
X198661682Y-102435000D01*
X199338318Y-102435000D01*
X199873000Y-102328644D01*
X199873000Y-122338023D01*
X199338318Y-122231667D01*
X198661682Y-122231667D01*
X197998048Y-122363673D01*
X197372918Y-122622610D01*
X196810315Y-122998529D01*
X196331862Y-123476982D01*
X195955943Y-124039585D01*
X195697006Y-124664715D01*
X195565000Y-125328349D01*
X195565000Y-126004985D01*
X195697006Y-126668619D01*
X195955943Y-127293749D01*
X196331862Y-127856352D01*
X196810315Y-128334805D01*
X197372918Y-128710724D01*
X197998048Y-128969661D01*
X198661682Y-129101667D01*
X199338318Y-129101667D01*
X199873000Y-128995311D01*
X199873000Y-147873000D01*
X180728282Y-147873000D01*
X180768333Y-147671652D01*
X180768333Y-146995016D01*
X180636327Y-146331382D01*
X180377390Y-145706252D01*
X180001471Y-145143649D01*
X179523018Y-144665196D01*
X178960415Y-144289277D01*
X178335285Y-144030340D01*
X177671651Y-143898334D01*
X176995015Y-143898334D01*
X176331381Y-144030340D01*
X175706251Y-144289277D01*
X175143648Y-144665196D01*
X174665195Y-145143649D01*
X174289276Y-145706252D01*
X174030339Y-146331382D01*
X173898333Y-146995016D01*
X173898333Y-147671652D01*
X173938384Y-147873000D01*
X154061615Y-147873000D01*
X154101666Y-147671652D01*
X154101666Y-146995016D01*
X153969660Y-146331382D01*
X153710723Y-145706252D01*
X153334804Y-145143649D01*
X152856351Y-144665196D01*
X152293748Y-144289277D01*
X151668618Y-144030340D01*
X151004984Y-143898334D01*
X150328348Y-143898334D01*
X149664714Y-144030340D01*
X149039584Y-144289277D01*
X148476981Y-144665196D01*
X147998528Y-145143649D01*
X147622609Y-145706252D01*
X147363672Y-146331382D01*
X147231666Y-146995016D01*
X147231666Y-147671652D01*
X147271717Y-147873000D01*
X128127000Y-147873000D01*
X128127000Y-128995311D01*
X128661682Y-129101667D01*
X129338318Y-129101667D01*
X130001952Y-128969661D01*
X130627082Y-128710724D01*
X131189685Y-128334805D01*
X131668138Y-127856352D01*
X132044057Y-127293749D01*
X132302994Y-126668619D01*
X132435000Y-126004985D01*
X132435000Y-125328349D01*
X132302994Y-124664715D01*
X132044057Y-124039585D01*
X131819524Y-123703546D01*
X139168000Y-123703546D01*
X139168000Y-123927122D01*
X139211617Y-124146401D01*
X139297176Y-124352958D01*
X139421388Y-124538854D01*
X139579480Y-124696946D01*
X139765376Y-124821158D01*
X139971933Y-124906717D01*
X140191212Y-124950334D01*
X140414788Y-124950334D01*
X140634067Y-124906717D01*
X140840624Y-124821158D01*
X141015463Y-124704334D01*
X176962340Y-124704334D01*
X177006000Y-124708634D01*
X177049660Y-124704334D01*
X177049667Y-124704334D01*
X177180274Y-124691470D01*
X177347851Y-124640637D01*
X177502291Y-124558087D01*
X177637659Y-124446993D01*
X177665499Y-124413070D01*
X178905741Y-123172828D01*
X178939659Y-123144993D01*
X179050753Y-123009625D01*
X179133303Y-122855185D01*
X179184136Y-122687608D01*
X179184853Y-122680334D01*
X179190538Y-122622610D01*
X179197000Y-122557001D01*
X179197000Y-122556995D01*
X179201300Y-122513335D01*
X179197000Y-122469675D01*
X179197000Y-121019849D01*
X179222759Y-121002637D01*
X179422637Y-120802759D01*
X179578000Y-120570241D01*
X179733363Y-120802759D01*
X179933241Y-121002637D01*
X180168273Y-121159680D01*
X180429426Y-121267853D01*
X180706665Y-121323000D01*
X180989335Y-121323000D01*
X181266574Y-121267853D01*
X181527727Y-121159680D01*
X181762759Y-121002637D01*
X181962637Y-120802759D01*
X182118000Y-120570241D01*
X182273363Y-120802759D01*
X182473241Y-121002637D01*
X182708273Y-121159680D01*
X182969426Y-121267853D01*
X183246665Y-121323000D01*
X183529335Y-121323000D01*
X183806574Y-121267853D01*
X184067727Y-121159680D01*
X184302759Y-121002637D01*
X184502637Y-120802759D01*
X184658000Y-120570241D01*
X184813363Y-120802759D01*
X185013241Y-121002637D01*
X185248273Y-121159680D01*
X185509426Y-121267853D01*
X185786665Y-121323000D01*
X186069335Y-121323000D01*
X186346574Y-121267853D01*
X186607727Y-121159680D01*
X186842759Y-121002637D01*
X187042637Y-120802759D01*
X187198000Y-120570241D01*
X187353363Y-120802759D01*
X187553241Y-121002637D01*
X187788273Y-121159680D01*
X188049426Y-121267853D01*
X188326665Y-121323000D01*
X188609335Y-121323000D01*
X188886574Y-121267853D01*
X189147727Y-121159680D01*
X189382759Y-121002637D01*
X189582637Y-120802759D01*
X189738000Y-120570241D01*
X189893363Y-120802759D01*
X190093241Y-121002637D01*
X190328273Y-121159680D01*
X190589426Y-121267853D01*
X190866665Y-121323000D01*
X191149335Y-121323000D01*
X191426574Y-121267853D01*
X191687727Y-121159680D01*
X191922759Y-121002637D01*
X192122637Y-120802759D01*
X192278000Y-120570241D01*
X192433363Y-120802759D01*
X192633241Y-121002637D01*
X192868273Y-121159680D01*
X193129426Y-121267853D01*
X193406665Y-121323000D01*
X193689335Y-121323000D01*
X193966574Y-121267853D01*
X194227727Y-121159680D01*
X194462759Y-121002637D01*
X194662637Y-120802759D01*
X194819680Y-120567727D01*
X194927853Y-120306574D01*
X194983000Y-120029335D01*
X194983000Y-119746665D01*
X194927853Y-119469426D01*
X194819680Y-119208273D01*
X194662637Y-118973241D01*
X194462759Y-118773363D01*
X194227727Y-118616320D01*
X193966574Y-118508147D01*
X193689335Y-118453000D01*
X193406665Y-118453000D01*
X193129426Y-118508147D01*
X192868273Y-118616320D01*
X192633241Y-118773363D01*
X192433363Y-118973241D01*
X192278000Y-119205759D01*
X192122637Y-118973241D01*
X191922759Y-118773363D01*
X191897000Y-118756151D01*
X191897000Y-111676660D01*
X191901300Y-111633000D01*
X191897000Y-111589340D01*
X191897000Y-111589333D01*
X191884136Y-111458726D01*
X191883673Y-111457198D01*
X191853526Y-111357816D01*
X191833303Y-111291149D01*
X191750753Y-111136709D01*
X191639659Y-111001341D01*
X191605742Y-110973506D01*
X186817000Y-106184765D01*
X186817000Y-105779849D01*
X186842759Y-105762637D01*
X187042637Y-105562759D01*
X187198000Y-105330241D01*
X187353363Y-105562759D01*
X187553241Y-105762637D01*
X187788273Y-105919680D01*
X188049426Y-106027853D01*
X188326665Y-106083000D01*
X188609335Y-106083000D01*
X188886574Y-106027853D01*
X189147727Y-105919680D01*
X189382759Y-105762637D01*
X189582637Y-105562759D01*
X189738000Y-105330241D01*
X189893363Y-105562759D01*
X190093241Y-105762637D01*
X190328273Y-105919680D01*
X190589426Y-106027853D01*
X190866665Y-106083000D01*
X191149335Y-106083000D01*
X191426574Y-106027853D01*
X191687727Y-105919680D01*
X191922759Y-105762637D01*
X192121357Y-105564039D01*
X192122188Y-105572482D01*
X192158498Y-105692180D01*
X192217463Y-105802494D01*
X192296815Y-105899185D01*
X192393506Y-105978537D01*
X192503820Y-106037502D01*
X192623518Y-106073812D01*
X192748000Y-106086072D01*
X194348000Y-106086072D01*
X194472482Y-106073812D01*
X194592180Y-106037502D01*
X194702494Y-105978537D01*
X194799185Y-105899185D01*
X194878537Y-105802494D01*
X194937502Y-105692180D01*
X194973812Y-105572482D01*
X194986072Y-105448000D01*
X194986072Y-103848000D01*
X194973812Y-103723518D01*
X194937502Y-103603820D01*
X194878537Y-103493506D01*
X194799185Y-103396815D01*
X194702494Y-103317463D01*
X194592180Y-103258498D01*
X194472482Y-103222188D01*
X194348000Y-103209928D01*
X192748000Y-103209928D01*
X192623518Y-103222188D01*
X192503820Y-103258498D01*
X192393506Y-103317463D01*
X192296815Y-103396815D01*
X192217463Y-103493506D01*
X192158498Y-103603820D01*
X192122188Y-103723518D01*
X192121357Y-103731961D01*
X191922759Y-103533363D01*
X191687727Y-103376320D01*
X191426574Y-103268147D01*
X191149335Y-103213000D01*
X190866665Y-103213000D01*
X190589426Y-103268147D01*
X190328273Y-103376320D01*
X190093241Y-103533363D01*
X189893363Y-103733241D01*
X189738000Y-103965759D01*
X189582637Y-103733241D01*
X189382759Y-103533363D01*
X189147727Y-103376320D01*
X188886574Y-103268147D01*
X188609335Y-103213000D01*
X188326665Y-103213000D01*
X188049426Y-103268147D01*
X187788273Y-103376320D01*
X187553241Y-103533363D01*
X187353363Y-103733241D01*
X187198000Y-103965759D01*
X187042637Y-103733241D01*
X186842759Y-103533363D01*
X186607727Y-103376320D01*
X186346574Y-103268147D01*
X186069335Y-103213000D01*
X185786665Y-103213000D01*
X185509426Y-103268147D01*
X185248273Y-103376320D01*
X185013241Y-103533363D01*
X184813363Y-103733241D01*
X184658000Y-103965759D01*
X184502637Y-103733241D01*
X184302759Y-103533363D01*
X184067727Y-103376320D01*
X183806574Y-103268147D01*
X183529335Y-103213000D01*
X183246665Y-103213000D01*
X182969426Y-103268147D01*
X182708273Y-103376320D01*
X182473241Y-103533363D01*
X182273363Y-103733241D01*
X182118000Y-103965759D01*
X181962637Y-103733241D01*
X181762759Y-103533363D01*
X181527727Y-103376320D01*
X181266574Y-103268147D01*
X180989335Y-103213000D01*
X180706665Y-103213000D01*
X180429426Y-103268147D01*
X180168273Y-103376320D01*
X179933241Y-103533363D01*
X179733363Y-103733241D01*
X179578000Y-103965759D01*
X179422637Y-103733241D01*
X179222759Y-103533363D01*
X178987727Y-103376320D01*
X178726574Y-103268147D01*
X178449335Y-103213000D01*
X178166665Y-103213000D01*
X177889426Y-103268147D01*
X177628273Y-103376320D01*
X177393241Y-103533363D01*
X177193363Y-103733241D01*
X177038000Y-103965759D01*
X176882637Y-103733241D01*
X176682759Y-103533363D01*
X176447727Y-103376320D01*
X176186574Y-103268147D01*
X175909335Y-103213000D01*
X175626665Y-103213000D01*
X175349426Y-103268147D01*
X175088273Y-103376320D01*
X174853241Y-103533363D01*
X174653363Y-103733241D01*
X174498000Y-103965759D01*
X174342637Y-103733241D01*
X174142759Y-103533363D01*
X173907727Y-103376320D01*
X173646574Y-103268147D01*
X173369335Y-103213000D01*
X173086665Y-103213000D01*
X172809426Y-103268147D01*
X172548273Y-103376320D01*
X172313241Y-103533363D01*
X172113363Y-103733241D01*
X171958000Y-103965759D01*
X171802637Y-103733241D01*
X171602759Y-103533363D01*
X171367727Y-103376320D01*
X171106574Y-103268147D01*
X170829335Y-103213000D01*
X170546665Y-103213000D01*
X170269426Y-103268147D01*
X170008273Y-103376320D01*
X169773241Y-103533363D01*
X169573363Y-103733241D01*
X169418000Y-103965759D01*
X169262637Y-103733241D01*
X169062759Y-103533363D01*
X168827727Y-103376320D01*
X168566574Y-103268147D01*
X168289335Y-103213000D01*
X168006665Y-103213000D01*
X167729426Y-103268147D01*
X167468273Y-103376320D01*
X167233241Y-103533363D01*
X167033363Y-103733241D01*
X166878000Y-103965759D01*
X166722637Y-103733241D01*
X166522759Y-103533363D01*
X166287727Y-103376320D01*
X166026574Y-103268147D01*
X165749335Y-103213000D01*
X165466665Y-103213000D01*
X165189426Y-103268147D01*
X164928273Y-103376320D01*
X164693241Y-103533363D01*
X164493363Y-103733241D01*
X164338000Y-103965759D01*
X164182637Y-103733241D01*
X163982759Y-103533363D01*
X163747727Y-103376320D01*
X163486574Y-103268147D01*
X163209335Y-103213000D01*
X162926665Y-103213000D01*
X162649426Y-103268147D01*
X162388273Y-103376320D01*
X162153241Y-103533363D01*
X161953363Y-103733241D01*
X161798000Y-103965759D01*
X161642637Y-103733241D01*
X161442759Y-103533363D01*
X161207727Y-103376320D01*
X160946574Y-103268147D01*
X160669335Y-103213000D01*
X160386665Y-103213000D01*
X160109426Y-103268147D01*
X159848273Y-103376320D01*
X159613241Y-103533363D01*
X159413363Y-103733241D01*
X159258000Y-103965759D01*
X159102637Y-103733241D01*
X158902759Y-103533363D01*
X158667727Y-103376320D01*
X158406574Y-103268147D01*
X158129335Y-103213000D01*
X157846665Y-103213000D01*
X157569426Y-103268147D01*
X157308273Y-103376320D01*
X157073241Y-103533363D01*
X156873363Y-103733241D01*
X156716320Y-103968273D01*
X156608147Y-104229426D01*
X156553000Y-104506665D01*
X156553000Y-104789335D01*
X156608147Y-105066574D01*
X156716320Y-105327727D01*
X156873363Y-105562759D01*
X157073241Y-105762637D01*
X157308273Y-105919680D01*
X157569426Y-106027853D01*
X157846665Y-106083000D01*
X158129335Y-106083000D01*
X158406574Y-106027853D01*
X158667727Y-105919680D01*
X158902759Y-105762637D01*
X159102637Y-105562759D01*
X159258000Y-105330241D01*
X159413363Y-105562759D01*
X159613241Y-105762637D01*
X159848273Y-105919680D01*
X160109426Y-106027853D01*
X160386665Y-106083000D01*
X160669335Y-106083000D01*
X160946574Y-106027853D01*
X161207727Y-105919680D01*
X161442759Y-105762637D01*
X161642637Y-105562759D01*
X161798000Y-105330241D01*
X161953363Y-105562759D01*
X162153241Y-105762637D01*
X162388273Y-105919680D01*
X162649426Y-106027853D01*
X162926665Y-106083000D01*
X163209335Y-106083000D01*
X163486574Y-106027853D01*
X163747727Y-105919680D01*
X163982759Y-105762637D01*
X164182637Y-105562759D01*
X164338000Y-105330241D01*
X164493363Y-105562759D01*
X164693241Y-105762637D01*
X164928273Y-105919680D01*
X165189426Y-106027853D01*
X165466665Y-106083000D01*
X165749335Y-106083000D01*
X166026574Y-106027853D01*
X166287727Y-105919680D01*
X166522759Y-105762637D01*
X166722637Y-105562759D01*
X166878000Y-105330241D01*
X167033363Y-105562759D01*
X167233241Y-105762637D01*
X167468273Y-105919680D01*
X167729426Y-106027853D01*
X168006665Y-106083000D01*
X168289335Y-106083000D01*
X168566574Y-106027853D01*
X168827727Y-105919680D01*
X169062759Y-105762637D01*
X169262637Y-105562759D01*
X169418000Y-105330241D01*
X169573363Y-105562759D01*
X169773241Y-105762637D01*
X170008273Y-105919680D01*
X170269426Y-106027853D01*
X170546665Y-106083000D01*
X170829335Y-106083000D01*
X171106574Y-106027853D01*
X171367727Y-105919680D01*
X171602759Y-105762637D01*
X171802637Y-105562759D01*
X171958000Y-105330241D01*
X172113363Y-105562759D01*
X172313241Y-105762637D01*
X172548273Y-105919680D01*
X172809426Y-106027853D01*
X173086665Y-106083000D01*
X173369335Y-106083000D01*
X173646574Y-106027853D01*
X173907727Y-105919680D01*
X174142759Y-105762637D01*
X174342637Y-105562759D01*
X174498000Y-105330241D01*
X174653363Y-105562759D01*
X174853241Y-105762637D01*
X175088273Y-105919680D01*
X175349426Y-106027853D01*
X175626665Y-106083000D01*
X175909335Y-106083000D01*
X176186574Y-106027853D01*
X176447727Y-105919680D01*
X176682759Y-105762637D01*
X176882637Y-105562759D01*
X177038000Y-105330241D01*
X177193363Y-105562759D01*
X177393241Y-105762637D01*
X177628273Y-105919680D01*
X177889426Y-106027853D01*
X178166665Y-106083000D01*
X178449335Y-106083000D01*
X178726574Y-106027853D01*
X178987727Y-105919680D01*
X179222759Y-105762637D01*
X179422637Y-105562759D01*
X179578000Y-105330241D01*
X179733363Y-105562759D01*
X179933241Y-105762637D01*
X180168273Y-105919680D01*
X180429426Y-106027853D01*
X180706665Y-106083000D01*
X180989335Y-106083000D01*
X181266574Y-106027853D01*
X181527727Y-105919680D01*
X181762759Y-105762637D01*
X181962637Y-105562759D01*
X182118000Y-105330241D01*
X182273363Y-105562759D01*
X182473241Y-105762637D01*
X182708273Y-105919680D01*
X182969426Y-106027853D01*
X183246665Y-106083000D01*
X183529335Y-106083000D01*
X183806574Y-106027853D01*
X184067727Y-105919680D01*
X184302759Y-105762637D01*
X184502637Y-105562759D01*
X184658000Y-105330241D01*
X184813363Y-105562759D01*
X185013241Y-105762637D01*
X185039000Y-105779849D01*
X185039000Y-106509340D01*
X185034700Y-106553000D01*
X185039000Y-106596660D01*
X185039000Y-106596666D01*
X185051864Y-106727273D01*
X185102697Y-106894850D01*
X185185247Y-107049290D01*
X185296341Y-107184659D01*
X185330264Y-107212499D01*
X190119001Y-112001237D01*
X190119000Y-118756151D01*
X190093241Y-118773363D01*
X189893363Y-118973241D01*
X189738000Y-119205759D01*
X189582637Y-118973241D01*
X189382759Y-118773363D01*
X189147727Y-118616320D01*
X188886574Y-118508147D01*
X188609335Y-118453000D01*
X188326665Y-118453000D01*
X188049426Y-118508147D01*
X187788273Y-118616320D01*
X187553241Y-118773363D01*
X187353363Y-118973241D01*
X187198000Y-119205759D01*
X187042637Y-118973241D01*
X186842759Y-118773363D01*
X186817000Y-118756151D01*
X186817000Y-114111993D01*
X186821300Y-114068333D01*
X186817000Y-114024673D01*
X186817000Y-112206995D01*
X186821300Y-112163335D01*
X186817000Y-112119675D01*
X186817000Y-111063994D01*
X186821300Y-111020334D01*
X186817000Y-110976674D01*
X186817000Y-110976667D01*
X186804136Y-110846060D01*
X186753303Y-110678483D01*
X186670753Y-110524043D01*
X186559659Y-110388675D01*
X186525737Y-110360836D01*
X186200499Y-110035598D01*
X186172659Y-110001675D01*
X186037291Y-109890581D01*
X185882851Y-109808031D01*
X185715274Y-109757198D01*
X185584667Y-109744334D01*
X185584660Y-109744334D01*
X185541000Y-109740034D01*
X185497340Y-109744334D01*
X171965545Y-109744334D01*
X171930537Y-109678840D01*
X171851185Y-109582149D01*
X171754494Y-109502797D01*
X171644180Y-109443832D01*
X171524482Y-109407522D01*
X171400000Y-109395262D01*
X168850000Y-109395262D01*
X168725518Y-109407522D01*
X168605820Y-109443832D01*
X168495506Y-109502797D01*
X168398815Y-109582149D01*
X168319463Y-109678840D01*
X168260498Y-109789154D01*
X168224188Y-109908852D01*
X168211928Y-110033334D01*
X168211928Y-111233334D01*
X168224188Y-111357816D01*
X168260498Y-111477514D01*
X168263609Y-111483334D01*
X168260498Y-111489154D01*
X168224188Y-111608852D01*
X168211928Y-111733334D01*
X168211928Y-112933334D01*
X168224188Y-113057816D01*
X168260498Y-113177514D01*
X168263609Y-113183334D01*
X168260498Y-113189154D01*
X168224188Y-113308852D01*
X168211928Y-113433334D01*
X168211928Y-114633334D01*
X168224188Y-114757816D01*
X168260498Y-114877514D01*
X168319463Y-114987828D01*
X168398815Y-115084519D01*
X168495506Y-115163871D01*
X168605820Y-115222836D01*
X168725518Y-115259146D01*
X168850000Y-115271406D01*
X171400000Y-115271406D01*
X171524482Y-115259146D01*
X171644180Y-115222836D01*
X171754494Y-115163871D01*
X171851185Y-115084519D01*
X171930537Y-114987828D01*
X171965545Y-114922334D01*
X185039000Y-114922334D01*
X185039001Y-118756151D01*
X185013241Y-118773363D01*
X184813363Y-118973241D01*
X184658000Y-119205759D01*
X184502637Y-118973241D01*
X184302759Y-118773363D01*
X184067727Y-118616320D01*
X183806574Y-118508147D01*
X183529335Y-118453000D01*
X183246665Y-118453000D01*
X182969426Y-118508147D01*
X182708273Y-118616320D01*
X182473241Y-118773363D01*
X182273363Y-118973241D01*
X182118000Y-119205759D01*
X181962637Y-118973241D01*
X181762759Y-118773363D01*
X181527727Y-118616320D01*
X181266574Y-118508147D01*
X180989335Y-118453000D01*
X180706665Y-118453000D01*
X180429426Y-118508147D01*
X180168273Y-118616320D01*
X179933241Y-118773363D01*
X179733363Y-118973241D01*
X179578000Y-119205759D01*
X179422637Y-118973241D01*
X179222759Y-118773363D01*
X178987727Y-118616320D01*
X178726574Y-118508147D01*
X178449335Y-118453000D01*
X178166665Y-118453000D01*
X177889426Y-118508147D01*
X177628273Y-118616320D01*
X177393241Y-118773363D01*
X177193363Y-118973241D01*
X177038000Y-119205759D01*
X176882637Y-118973241D01*
X176682759Y-118773363D01*
X176447727Y-118616320D01*
X176186574Y-118508147D01*
X175909335Y-118453000D01*
X175626665Y-118453000D01*
X175349426Y-118508147D01*
X175088273Y-118616320D01*
X174853241Y-118773363D01*
X174653363Y-118973241D01*
X174498000Y-119205759D01*
X174342637Y-118973241D01*
X174142759Y-118773363D01*
X173907727Y-118616320D01*
X173646574Y-118508147D01*
X173369335Y-118453000D01*
X173086665Y-118453000D01*
X172809426Y-118508147D01*
X172548273Y-118616320D01*
X172313241Y-118773363D01*
X172113363Y-118973241D01*
X171958000Y-119205759D01*
X171802637Y-118973241D01*
X171602759Y-118773363D01*
X171367727Y-118616320D01*
X171106574Y-118508147D01*
X170829335Y-118453000D01*
X170546665Y-118453000D01*
X170269426Y-118508147D01*
X170008273Y-118616320D01*
X169773241Y-118773363D01*
X169573363Y-118973241D01*
X169418000Y-119205759D01*
X169262637Y-118973241D01*
X169062759Y-118773363D01*
X168827727Y-118616320D01*
X168566574Y-118508147D01*
X168289335Y-118453000D01*
X168006665Y-118453000D01*
X167729426Y-118508147D01*
X167468273Y-118616320D01*
X167233241Y-118773363D01*
X167033363Y-118973241D01*
X166878000Y-119205759D01*
X166722637Y-118973241D01*
X166522759Y-118773363D01*
X166287727Y-118616320D01*
X166026574Y-118508147D01*
X165749335Y-118453000D01*
X165466665Y-118453000D01*
X165189426Y-118508147D01*
X164928273Y-118616320D01*
X164693241Y-118773363D01*
X164493363Y-118973241D01*
X164338000Y-119205759D01*
X164182637Y-118973241D01*
X163982759Y-118773363D01*
X163747727Y-118616320D01*
X163486574Y-118508147D01*
X163209335Y-118453000D01*
X162926665Y-118453000D01*
X162649426Y-118508147D01*
X162388273Y-118616320D01*
X162153241Y-118773363D01*
X161953363Y-118973241D01*
X161798000Y-119205759D01*
X161642637Y-118973241D01*
X161442759Y-118773363D01*
X161207727Y-118616320D01*
X160946574Y-118508147D01*
X160669335Y-118453000D01*
X160386665Y-118453000D01*
X160109426Y-118508147D01*
X159848273Y-118616320D01*
X159613241Y-118773363D01*
X159413363Y-118973241D01*
X159258000Y-119205759D01*
X159102637Y-118973241D01*
X158902759Y-118773363D01*
X158667727Y-118616320D01*
X158406574Y-118508147D01*
X158129335Y-118453000D01*
X157846665Y-118453000D01*
X157569426Y-118508147D01*
X157308273Y-118616320D01*
X157073241Y-118773363D01*
X156873363Y-118973241D01*
X156716320Y-119208273D01*
X156608147Y-119469426D01*
X156553000Y-119746665D01*
X156553000Y-120029335D01*
X156608147Y-120306574D01*
X156716320Y-120567727D01*
X156873363Y-120802759D01*
X157073241Y-121002637D01*
X157308273Y-121159680D01*
X157569426Y-121267853D01*
X157846665Y-121323000D01*
X158129335Y-121323000D01*
X158406574Y-121267853D01*
X158667727Y-121159680D01*
X158902759Y-121002637D01*
X159102637Y-120802759D01*
X159258000Y-120570241D01*
X159413363Y-120802759D01*
X159613241Y-121002637D01*
X159848273Y-121159680D01*
X160109426Y-121267853D01*
X160386665Y-121323000D01*
X160669335Y-121323000D01*
X160946574Y-121267853D01*
X161207727Y-121159680D01*
X161442759Y-121002637D01*
X161642637Y-120802759D01*
X161798000Y-120570241D01*
X161953363Y-120802759D01*
X162153241Y-121002637D01*
X162388273Y-121159680D01*
X162649426Y-121267853D01*
X162926665Y-121323000D01*
X163209335Y-121323000D01*
X163486574Y-121267853D01*
X163747727Y-121159680D01*
X163982759Y-121002637D01*
X164182637Y-120802759D01*
X164338000Y-120570241D01*
X164493363Y-120802759D01*
X164693241Y-121002637D01*
X164928273Y-121159680D01*
X165189426Y-121267853D01*
X165466665Y-121323000D01*
X165749335Y-121323000D01*
X166026574Y-121267853D01*
X166287727Y-121159680D01*
X166522759Y-121002637D01*
X166722637Y-120802759D01*
X166878000Y-120570241D01*
X167033363Y-120802759D01*
X167233241Y-121002637D01*
X167468273Y-121159680D01*
X167729426Y-121267853D01*
X168006665Y-121323000D01*
X168289335Y-121323000D01*
X168566574Y-121267853D01*
X168827727Y-121159680D01*
X169062759Y-121002637D01*
X169262637Y-120802759D01*
X169418000Y-120570241D01*
X169573363Y-120802759D01*
X169773241Y-121002637D01*
X170008273Y-121159680D01*
X170269426Y-121267853D01*
X170546665Y-121323000D01*
X170829335Y-121323000D01*
X171106574Y-121267853D01*
X171367727Y-121159680D01*
X171602759Y-121002637D01*
X171802637Y-120802759D01*
X171958000Y-120570241D01*
X172113363Y-120802759D01*
X172313241Y-121002637D01*
X172548273Y-121159680D01*
X172809426Y-121267853D01*
X173086665Y-121323000D01*
X173369335Y-121323000D01*
X173646574Y-121267853D01*
X173907727Y-121159680D01*
X174142759Y-121002637D01*
X174342637Y-120802759D01*
X174498000Y-120570241D01*
X174653363Y-120802759D01*
X174853241Y-121002637D01*
X175088273Y-121159680D01*
X175349426Y-121267853D01*
X175626665Y-121323000D01*
X175909335Y-121323000D01*
X176186574Y-121267853D01*
X176447727Y-121159680D01*
X176682759Y-121002637D01*
X176882637Y-120802759D01*
X177038000Y-120570241D01*
X177193363Y-120802759D01*
X177393241Y-121002637D01*
X177419000Y-121019849D01*
X177419001Y-122145097D01*
X176637765Y-122926334D01*
X141015463Y-122926334D01*
X140840624Y-122809510D01*
X140634067Y-122723951D01*
X140414788Y-122680334D01*
X140191212Y-122680334D01*
X139971933Y-122723951D01*
X139765376Y-122809510D01*
X139579480Y-122933722D01*
X139421388Y-123091814D01*
X139297176Y-123277710D01*
X139211617Y-123484267D01*
X139168000Y-123703546D01*
X131819524Y-123703546D01*
X131668138Y-123476982D01*
X131189685Y-122998529D01*
X130627082Y-122622610D01*
X130001952Y-122363673D01*
X129338318Y-122231667D01*
X128661682Y-122231667D01*
X128127000Y-122338023D01*
X128127000Y-107163999D01*
X135693000Y-107163999D01*
X135693000Y-107446669D01*
X135748147Y-107723908D01*
X135856320Y-107985061D01*
X136013363Y-108220093D01*
X136213241Y-108419971D01*
X136239001Y-108437183D01*
X136239000Y-111706674D01*
X136234700Y-111750334D01*
X136239000Y-111793994D01*
X136239000Y-111794000D01*
X136251864Y-111924607D01*
X136302697Y-112092184D01*
X136385247Y-112246624D01*
X136496341Y-112381993D01*
X136530264Y-112409833D01*
X138751504Y-114631074D01*
X138779341Y-114664993D01*
X138914709Y-114776087D01*
X139069149Y-114858637D01*
X139184527Y-114893636D01*
X139236725Y-114909470D01*
X139411000Y-114926635D01*
X139454668Y-114922334D01*
X156034455Y-114922334D01*
X156069463Y-114987828D01*
X156148815Y-115084519D01*
X156245506Y-115163871D01*
X156355820Y-115222836D01*
X156475518Y-115259146D01*
X156600000Y-115271406D01*
X159150000Y-115271406D01*
X159274482Y-115259146D01*
X159394180Y-115222836D01*
X159504494Y-115163871D01*
X159601185Y-115084519D01*
X159680537Y-114987828D01*
X159739502Y-114877514D01*
X159775812Y-114757816D01*
X159788072Y-114633334D01*
X159788072Y-113433334D01*
X159775812Y-113308852D01*
X159739502Y-113189154D01*
X159736391Y-113183334D01*
X159739502Y-113177514D01*
X159775812Y-113057816D01*
X159788072Y-112933334D01*
X159788072Y-111965469D01*
X160265000Y-111965469D01*
X160265000Y-112701199D01*
X160408534Y-113422793D01*
X160690086Y-114102520D01*
X161098836Y-114714258D01*
X161619076Y-115234498D01*
X162230814Y-115643248D01*
X162910541Y-115924800D01*
X163632135Y-116068334D01*
X164367865Y-116068334D01*
X165089459Y-115924800D01*
X165769186Y-115643248D01*
X166380924Y-115234498D01*
X166901164Y-114714258D01*
X167309914Y-114102520D01*
X167591466Y-113422793D01*
X167735000Y-112701199D01*
X167735000Y-111965469D01*
X167591466Y-111243875D01*
X167309914Y-110564148D01*
X166901164Y-109952410D01*
X166380924Y-109432170D01*
X165769186Y-109023420D01*
X165089459Y-108741868D01*
X164367865Y-108598334D01*
X163632135Y-108598334D01*
X162910541Y-108741868D01*
X162230814Y-109023420D01*
X161619076Y-109432170D01*
X161098836Y-109952410D01*
X160690086Y-110564148D01*
X160408534Y-111243875D01*
X160265000Y-111965469D01*
X159788072Y-111965469D01*
X159788072Y-111733334D01*
X159775812Y-111608852D01*
X159739502Y-111489154D01*
X159736391Y-111483334D01*
X159739502Y-111477514D01*
X159775812Y-111357816D01*
X159788072Y-111233334D01*
X159788072Y-110033334D01*
X159775812Y-109908852D01*
X159739502Y-109789154D01*
X159680537Y-109678840D01*
X159601185Y-109582149D01*
X159504494Y-109502797D01*
X159394180Y-109443832D01*
X159274482Y-109407522D01*
X159150000Y-109395262D01*
X156600000Y-109395262D01*
X156475518Y-109407522D01*
X156355820Y-109443832D01*
X156245506Y-109502797D01*
X156148815Y-109582149D01*
X156069463Y-109678840D01*
X156034455Y-109744334D01*
X150095236Y-109744334D01*
X147954956Y-107604055D01*
X147961000Y-107573669D01*
X147961000Y-107290999D01*
X147905853Y-107013760D01*
X147797680Y-106752607D01*
X147640637Y-106517575D01*
X147440759Y-106317697D01*
X147205727Y-106160654D01*
X146944574Y-106052481D01*
X146667335Y-105997334D01*
X146384665Y-105997334D01*
X146107426Y-106052481D01*
X145846273Y-106160654D01*
X145611241Y-106317697D01*
X145411363Y-106517575D01*
X145254320Y-106752607D01*
X145146147Y-107013760D01*
X145091000Y-107290999D01*
X145091000Y-107573669D01*
X145146147Y-107850908D01*
X145254320Y-108112061D01*
X145411363Y-108347093D01*
X145611241Y-108546971D01*
X145846273Y-108704014D01*
X146107426Y-108812187D01*
X146384665Y-108867334D01*
X146667335Y-108867334D01*
X146697721Y-108861290D01*
X149067504Y-111231074D01*
X149095341Y-111264993D01*
X149230709Y-111376087D01*
X149358390Y-111444334D01*
X146862236Y-111444334D01*
X142922956Y-107505055D01*
X142929000Y-107474669D01*
X142929000Y-107191999D01*
X142873853Y-106914760D01*
X142765680Y-106653607D01*
X142608637Y-106418575D01*
X142408759Y-106218697D01*
X142173727Y-106061654D01*
X141912574Y-105953481D01*
X141635335Y-105898334D01*
X141352665Y-105898334D01*
X141075426Y-105953481D01*
X140814273Y-106061654D01*
X140579241Y-106218697D01*
X140379363Y-106418575D01*
X140222320Y-106653607D01*
X140114147Y-106914760D01*
X140059000Y-107191999D01*
X140059000Y-107474669D01*
X140114147Y-107751908D01*
X140222320Y-108013061D01*
X140379363Y-108248093D01*
X140579241Y-108447971D01*
X140814273Y-108605014D01*
X141075426Y-108713187D01*
X141352665Y-108768334D01*
X141635335Y-108768334D01*
X141665721Y-108762290D01*
X145834506Y-112931076D01*
X145862341Y-112964993D01*
X145997709Y-113076087D01*
X146125390Y-113144334D01*
X139779236Y-113144334D01*
X138017000Y-111382099D01*
X138017000Y-108437183D01*
X138042759Y-108419971D01*
X138242637Y-108220093D01*
X138399680Y-107985061D01*
X138507853Y-107723908D01*
X138563000Y-107446669D01*
X138563000Y-107163999D01*
X138507853Y-106886760D01*
X138399680Y-106625607D01*
X138242637Y-106390575D01*
X138042759Y-106190697D01*
X137807727Y-106033654D01*
X137546574Y-105925481D01*
X137269335Y-105870334D01*
X136986665Y-105870334D01*
X136709426Y-105925481D01*
X136448273Y-106033654D01*
X136213241Y-106190697D01*
X136013363Y-106390575D01*
X135856320Y-106625607D01*
X135748147Y-106886760D01*
X135693000Y-107163999D01*
X128127000Y-107163999D01*
X128127000Y-102328644D01*
X128661682Y-102435000D01*
X129338318Y-102435000D01*
X130001952Y-102302994D01*
X130627082Y-102044057D01*
X131189685Y-101668138D01*
X131668138Y-101189685D01*
X132044057Y-100627082D01*
X132302994Y-100001952D01*
X132435000Y-99338318D01*
X132435000Y-98661682D01*
X132302994Y-97998048D01*
X132044057Y-97372918D01*
X131797554Y-97003999D01*
X135693000Y-97003999D01*
X135693000Y-97286669D01*
X135748147Y-97563908D01*
X135856320Y-97825061D01*
X136013363Y-98060093D01*
X136213241Y-98259971D01*
X136448273Y-98417014D01*
X136709426Y-98525187D01*
X136986665Y-98580334D01*
X137269335Y-98580334D01*
X137546574Y-98525187D01*
X137807727Y-98417014D01*
X138042759Y-98259971D01*
X138242637Y-98060093D01*
X138399680Y-97825061D01*
X138507853Y-97563908D01*
X138563000Y-97286669D01*
X138563000Y-97003999D01*
X138507853Y-96726760D01*
X138399680Y-96465607D01*
X138242637Y-96230575D01*
X138042759Y-96030697D01*
X138017000Y-96013485D01*
X138017000Y-92560569D01*
X139975235Y-90602334D01*
X144923040Y-90602334D01*
X144914149Y-90605031D01*
X144759709Y-90687581D01*
X144624341Y-90798675D01*
X144596501Y-90832598D01*
X140896259Y-94532840D01*
X140862342Y-94560675D01*
X140834507Y-94594592D01*
X140834505Y-94594594D01*
X140751248Y-94696043D01*
X140668698Y-94850482D01*
X140617864Y-95018060D01*
X140600700Y-95192334D01*
X140605001Y-95236004D01*
X140605001Y-96041485D01*
X140579241Y-96058697D01*
X140379363Y-96258575D01*
X140222320Y-96493607D01*
X140114147Y-96754760D01*
X140059000Y-97031999D01*
X140059000Y-97314669D01*
X140114147Y-97591908D01*
X140222320Y-97853061D01*
X140379363Y-98088093D01*
X140579241Y-98287971D01*
X140814273Y-98445014D01*
X141075426Y-98553187D01*
X141352665Y-98608334D01*
X141635335Y-98608334D01*
X141912574Y-98553187D01*
X142173727Y-98445014D01*
X142408759Y-98287971D01*
X142608637Y-98088093D01*
X142765680Y-97853061D01*
X142873853Y-97591908D01*
X142929000Y-97314669D01*
X142929000Y-97031999D01*
X142873853Y-96754760D01*
X142765680Y-96493607D01*
X142608637Y-96258575D01*
X142408759Y-96058697D01*
X142383000Y-96041485D01*
X142383000Y-95560569D01*
X145624235Y-92319334D01*
X148057412Y-92319334D01*
X148053341Y-92322675D01*
X148025506Y-92356592D01*
X145928259Y-94453840D01*
X145894342Y-94481675D01*
X145866507Y-94515592D01*
X145866505Y-94515594D01*
X145783248Y-94617043D01*
X145700698Y-94771482D01*
X145649864Y-94939060D01*
X145632700Y-95113334D01*
X145637001Y-95157004D01*
X145637001Y-96140485D01*
X145611241Y-96157697D01*
X145411363Y-96357575D01*
X145254320Y-96592607D01*
X145146147Y-96853760D01*
X145091000Y-97130999D01*
X145091000Y-97413669D01*
X145146147Y-97690908D01*
X145254320Y-97952061D01*
X145411363Y-98187093D01*
X145611241Y-98386971D01*
X145846273Y-98544014D01*
X146107426Y-98652187D01*
X146384665Y-98707334D01*
X146667335Y-98707334D01*
X146944574Y-98652187D01*
X147205727Y-98544014D01*
X147440759Y-98386971D01*
X147640637Y-98187093D01*
X147797680Y-97952061D01*
X147905853Y-97690908D01*
X147961000Y-97413669D01*
X147961000Y-97130999D01*
X147905853Y-96853760D01*
X147797680Y-96592607D01*
X147758076Y-96533334D01*
X156561928Y-96533334D01*
X156561928Y-98133334D01*
X156574188Y-98257816D01*
X156610498Y-98377514D01*
X156669463Y-98487828D01*
X156748815Y-98584519D01*
X156845506Y-98663871D01*
X156955820Y-98722836D01*
X157075518Y-98759146D01*
X157200000Y-98771406D01*
X158800000Y-98771406D01*
X158924482Y-98759146D01*
X159044180Y-98722836D01*
X159154494Y-98663871D01*
X159251185Y-98584519D01*
X159330537Y-98487828D01*
X159389502Y-98377514D01*
X159425812Y-98257816D01*
X159426643Y-98249373D01*
X159625241Y-98447971D01*
X159860273Y-98605014D01*
X160121426Y-98713187D01*
X160398665Y-98768334D01*
X160681335Y-98768334D01*
X160958574Y-98713187D01*
X161219727Y-98605014D01*
X161454759Y-98447971D01*
X161654637Y-98248093D01*
X161810000Y-98015575D01*
X161965363Y-98248093D01*
X162165241Y-98447971D01*
X162400273Y-98605014D01*
X162661426Y-98713187D01*
X162938665Y-98768334D01*
X163221335Y-98768334D01*
X163498574Y-98713187D01*
X163759727Y-98605014D01*
X163994759Y-98447971D01*
X164194637Y-98248093D01*
X164350000Y-98015575D01*
X164505363Y-98248093D01*
X164705241Y-98447971D01*
X164940273Y-98605014D01*
X165201426Y-98713187D01*
X165478665Y-98768334D01*
X165761335Y-98768334D01*
X166038574Y-98713187D01*
X166299727Y-98605014D01*
X166534759Y-98447971D01*
X166734637Y-98248093D01*
X166890000Y-98015575D01*
X167045363Y-98248093D01*
X167245241Y-98447971D01*
X167480273Y-98605014D01*
X167741426Y-98713187D01*
X168018665Y-98768334D01*
X168301335Y-98768334D01*
X168578574Y-98713187D01*
X168839727Y-98605014D01*
X169074759Y-98447971D01*
X169274637Y-98248093D01*
X169430000Y-98015575D01*
X169585363Y-98248093D01*
X169785241Y-98447971D01*
X170020273Y-98605014D01*
X170281426Y-98713187D01*
X170558665Y-98768334D01*
X170841335Y-98768334D01*
X171118574Y-98713187D01*
X171379727Y-98605014D01*
X171614759Y-98447971D01*
X171814637Y-98248093D01*
X171970000Y-98015575D01*
X172125363Y-98248093D01*
X172325241Y-98447971D01*
X172560273Y-98605014D01*
X172821426Y-98713187D01*
X173098665Y-98768334D01*
X173381335Y-98768334D01*
X173658574Y-98713187D01*
X173919727Y-98605014D01*
X174154759Y-98447971D01*
X174354637Y-98248093D01*
X174510000Y-98015575D01*
X174665363Y-98248093D01*
X174865241Y-98447971D01*
X175100273Y-98605014D01*
X175361426Y-98713187D01*
X175638665Y-98768334D01*
X175921335Y-98768334D01*
X176198574Y-98713187D01*
X176459727Y-98605014D01*
X176694759Y-98447971D01*
X176894637Y-98248093D01*
X177051680Y-98013061D01*
X177159853Y-97751908D01*
X177215000Y-97474669D01*
X177215000Y-97191999D01*
X177159853Y-96914760D01*
X177051680Y-96653607D01*
X176894637Y-96418575D01*
X176694759Y-96218697D01*
X176459727Y-96061654D01*
X176198574Y-95953481D01*
X175921335Y-95898334D01*
X175638665Y-95898334D01*
X175361426Y-95953481D01*
X175100273Y-96061654D01*
X174865241Y-96218697D01*
X174665363Y-96418575D01*
X174510000Y-96651093D01*
X174354637Y-96418575D01*
X174154759Y-96218697D01*
X173919727Y-96061654D01*
X173658574Y-95953481D01*
X173381335Y-95898334D01*
X173098665Y-95898334D01*
X172821426Y-95953481D01*
X172560273Y-96061654D01*
X172325241Y-96218697D01*
X172125363Y-96418575D01*
X171970000Y-96651093D01*
X171814637Y-96418575D01*
X171614759Y-96218697D01*
X171379727Y-96061654D01*
X171118574Y-95953481D01*
X170841335Y-95898334D01*
X170558665Y-95898334D01*
X170281426Y-95953481D01*
X170020273Y-96061654D01*
X169785241Y-96218697D01*
X169585363Y-96418575D01*
X169430000Y-96651093D01*
X169274637Y-96418575D01*
X169074759Y-96218697D01*
X168839727Y-96061654D01*
X168578574Y-95953481D01*
X168301335Y-95898334D01*
X168018665Y-95898334D01*
X167741426Y-95953481D01*
X167480273Y-96061654D01*
X167245241Y-96218697D01*
X167045363Y-96418575D01*
X166890000Y-96651093D01*
X166734637Y-96418575D01*
X166534759Y-96218697D01*
X166299727Y-96061654D01*
X166038574Y-95953481D01*
X165761335Y-95898334D01*
X165478665Y-95898334D01*
X165201426Y-95953481D01*
X164940273Y-96061654D01*
X164705241Y-96218697D01*
X164505363Y-96418575D01*
X164350000Y-96651093D01*
X164194637Y-96418575D01*
X163994759Y-96218697D01*
X163759727Y-96061654D01*
X163498574Y-95953481D01*
X163221335Y-95898334D01*
X162938665Y-95898334D01*
X162661426Y-95953481D01*
X162400273Y-96061654D01*
X162165241Y-96218697D01*
X161965363Y-96418575D01*
X161810000Y-96651093D01*
X161654637Y-96418575D01*
X161454759Y-96218697D01*
X161219727Y-96061654D01*
X160958574Y-95953481D01*
X160681335Y-95898334D01*
X160398665Y-95898334D01*
X160121426Y-95953481D01*
X159860273Y-96061654D01*
X159625241Y-96218697D01*
X159426643Y-96417295D01*
X159425812Y-96408852D01*
X159389502Y-96289154D01*
X159330537Y-96178840D01*
X159251185Y-96082149D01*
X159154494Y-96002797D01*
X159044180Y-95943832D01*
X158924482Y-95907522D01*
X158800000Y-95895262D01*
X157200000Y-95895262D01*
X157075518Y-95907522D01*
X156955820Y-95943832D01*
X156845506Y-96002797D01*
X156748815Y-96082149D01*
X156669463Y-96178840D01*
X156610498Y-96289154D01*
X156574188Y-96408852D01*
X156561928Y-96533334D01*
X147758076Y-96533334D01*
X147640637Y-96357575D01*
X147440759Y-96157697D01*
X147415000Y-96140485D01*
X147415000Y-95481569D01*
X149053236Y-93843334D01*
X162103340Y-93843334D01*
X162147000Y-93847634D01*
X162190660Y-93843334D01*
X162190667Y-93843334D01*
X162321274Y-93830470D01*
X162488851Y-93779637D01*
X162643291Y-93697087D01*
X162778659Y-93585993D01*
X162806499Y-93552070D01*
X163677737Y-92680832D01*
X163711659Y-92652993D01*
X163822753Y-92517625D01*
X163905303Y-92363185D01*
X163937927Y-92255636D01*
X163956136Y-92195610D01*
X163962693Y-92129031D01*
X163969000Y-92065001D01*
X163969000Y-92064995D01*
X163973300Y-92021335D01*
X163969000Y-91977675D01*
X163969000Y-90845183D01*
X163994759Y-90827971D01*
X164194637Y-90628093D01*
X164350000Y-90395575D01*
X164505363Y-90628093D01*
X164705241Y-90827971D01*
X164940273Y-90985014D01*
X165201426Y-91093187D01*
X165478665Y-91148334D01*
X165761335Y-91148334D01*
X166038574Y-91093187D01*
X166299727Y-90985014D01*
X166534759Y-90827971D01*
X166734637Y-90628093D01*
X166890000Y-90395575D01*
X167045363Y-90628093D01*
X167245241Y-90827971D01*
X167480273Y-90985014D01*
X167741426Y-91093187D01*
X168018665Y-91148334D01*
X168301335Y-91148334D01*
X168578574Y-91093187D01*
X168839727Y-90985014D01*
X169074759Y-90827971D01*
X169274637Y-90628093D01*
X169430000Y-90395575D01*
X169585363Y-90628093D01*
X169785241Y-90827971D01*
X170020273Y-90985014D01*
X170281426Y-91093187D01*
X170558665Y-91148334D01*
X170841335Y-91148334D01*
X171118574Y-91093187D01*
X171379727Y-90985014D01*
X171614759Y-90827971D01*
X171814637Y-90628093D01*
X171970000Y-90395575D01*
X172125363Y-90628093D01*
X172325241Y-90827971D01*
X172560273Y-90985014D01*
X172821426Y-91093187D01*
X173098665Y-91148334D01*
X173381335Y-91148334D01*
X173658574Y-91093187D01*
X173919727Y-90985014D01*
X174154759Y-90827971D01*
X174354637Y-90628093D01*
X174510000Y-90395575D01*
X174665363Y-90628093D01*
X174865241Y-90827971D01*
X175100273Y-90985014D01*
X175361426Y-91093187D01*
X175638665Y-91148334D01*
X175921335Y-91148334D01*
X176198574Y-91093187D01*
X176459727Y-90985014D01*
X176694759Y-90827971D01*
X176894637Y-90628093D01*
X177051680Y-90393061D01*
X177159853Y-90131908D01*
X177215000Y-89854669D01*
X177215000Y-89571999D01*
X177159853Y-89294760D01*
X177051680Y-89033607D01*
X176894637Y-88798575D01*
X176694759Y-88598697D01*
X176459727Y-88441654D01*
X176198574Y-88333481D01*
X175921335Y-88278334D01*
X175638665Y-88278334D01*
X175361426Y-88333481D01*
X175100273Y-88441654D01*
X174865241Y-88598697D01*
X174665363Y-88798575D01*
X174510000Y-89031093D01*
X174354637Y-88798575D01*
X174154759Y-88598697D01*
X173919727Y-88441654D01*
X173658574Y-88333481D01*
X173381335Y-88278334D01*
X173098665Y-88278334D01*
X172821426Y-88333481D01*
X172560273Y-88441654D01*
X172325241Y-88598697D01*
X172125363Y-88798575D01*
X171970000Y-89031093D01*
X171814637Y-88798575D01*
X171614759Y-88598697D01*
X171379727Y-88441654D01*
X171118574Y-88333481D01*
X170841335Y-88278334D01*
X170558665Y-88278334D01*
X170281426Y-88333481D01*
X170020273Y-88441654D01*
X169785241Y-88598697D01*
X169585363Y-88798575D01*
X169430000Y-89031093D01*
X169274637Y-88798575D01*
X169074759Y-88598697D01*
X168839727Y-88441654D01*
X168578574Y-88333481D01*
X168301335Y-88278334D01*
X168018665Y-88278334D01*
X167741426Y-88333481D01*
X167480273Y-88441654D01*
X167245241Y-88598697D01*
X167045363Y-88798575D01*
X166890000Y-89031093D01*
X166734637Y-88798575D01*
X166534759Y-88598697D01*
X166299727Y-88441654D01*
X166038574Y-88333481D01*
X165761335Y-88278334D01*
X165478665Y-88278334D01*
X165201426Y-88333481D01*
X164940273Y-88441654D01*
X164705241Y-88598697D01*
X164505363Y-88798575D01*
X164350000Y-89031093D01*
X164194637Y-88798575D01*
X163994759Y-88598697D01*
X163759727Y-88441654D01*
X163498574Y-88333481D01*
X163221335Y-88278334D01*
X162938665Y-88278334D01*
X162661426Y-88333481D01*
X162400273Y-88441654D01*
X162165241Y-88598697D01*
X161965363Y-88798575D01*
X161810000Y-89031093D01*
X161654637Y-88798575D01*
X161454759Y-88598697D01*
X161219727Y-88441654D01*
X160958574Y-88333481D01*
X160681335Y-88278334D01*
X160398665Y-88278334D01*
X160121426Y-88333481D01*
X159860273Y-88441654D01*
X159625241Y-88598697D01*
X159425363Y-88798575D01*
X159270000Y-89031093D01*
X159114637Y-88798575D01*
X158914759Y-88598697D01*
X158679727Y-88441654D01*
X158418574Y-88333481D01*
X158141335Y-88278334D01*
X157858665Y-88278334D01*
X157581426Y-88333481D01*
X157320273Y-88441654D01*
X157085241Y-88598697D01*
X156885363Y-88798575D01*
X156868151Y-88824334D01*
X139650659Y-88824334D01*
X139606999Y-88820034D01*
X139563339Y-88824334D01*
X139563333Y-88824334D01*
X139465924Y-88833928D01*
X139432724Y-88837198D01*
X139331058Y-88868038D01*
X139265149Y-88888031D01*
X139110709Y-88970581D01*
X138975341Y-89081675D01*
X138947501Y-89115598D01*
X136530259Y-91532840D01*
X136496342Y-91560675D01*
X136468507Y-91594592D01*
X136468505Y-91594594D01*
X136385248Y-91696043D01*
X136302698Y-91850482D01*
X136251864Y-92018060D01*
X136234700Y-92192334D01*
X136239001Y-92236004D01*
X136239000Y-96013485D01*
X136213241Y-96030697D01*
X136013363Y-96230575D01*
X135856320Y-96465607D01*
X135748147Y-96726760D01*
X135693000Y-97003999D01*
X131797554Y-97003999D01*
X131668138Y-96810315D01*
X131189685Y-96331862D01*
X130627082Y-95955943D01*
X130001952Y-95697006D01*
X129338318Y-95565000D01*
X128661682Y-95565000D01*
X128127000Y-95671356D01*
X128127000Y-77127000D01*
X147231666Y-77127000D01*
X147231666Y-77671652D01*
G37*
X147231666Y-77671652D02*
X147363672Y-78335286D01*
X147622609Y-78960416D01*
X147998528Y-79523019D01*
X148476981Y-80001472D01*
X149039584Y-80377391D01*
X149664714Y-80636328D01*
X150328348Y-80768334D01*
X151004984Y-80768334D01*
X151668618Y-80636328D01*
X152293748Y-80377391D01*
X152856351Y-80001472D01*
X153334804Y-79523019D01*
X153710723Y-78960416D01*
X153969660Y-78335286D01*
X154101666Y-77671652D01*
X154101666Y-77127000D01*
X173898333Y-77127000D01*
X173898333Y-77671652D01*
X174030339Y-78335286D01*
X174289276Y-78960416D01*
X174665195Y-79523019D01*
X175143648Y-80001472D01*
X175706251Y-80377391D01*
X176331381Y-80636328D01*
X176995015Y-80768334D01*
X177671651Y-80768334D01*
X178335285Y-80636328D01*
X178960415Y-80377391D01*
X179523018Y-80001472D01*
X180001471Y-79523019D01*
X180377390Y-78960416D01*
X180636327Y-78335286D01*
X180768333Y-77671652D01*
X180768333Y-77127000D01*
X199873000Y-77127000D01*
X199873000Y-95671356D01*
X199338318Y-95565000D01*
X198661682Y-95565000D01*
X197998048Y-95697006D01*
X197372918Y-95955943D01*
X196810315Y-96331862D01*
X196331862Y-96810315D01*
X195955943Y-97372918D01*
X195697006Y-97998048D01*
X195565000Y-98661682D01*
X195565000Y-99338318D01*
X195697006Y-100001952D01*
X195955943Y-100627082D01*
X196331862Y-101189685D01*
X196810315Y-101668138D01*
X197372918Y-102044057D01*
X197998048Y-102302994D01*
X198661682Y-102435000D01*
X199338318Y-102435000D01*
X199873000Y-102328644D01*
X199873000Y-122338023D01*
X199338318Y-122231667D01*
X198661682Y-122231667D01*
X197998048Y-122363673D01*
X197372918Y-122622610D01*
X196810315Y-122998529D01*
X196331862Y-123476982D01*
X195955943Y-124039585D01*
X195697006Y-124664715D01*
X195565000Y-125328349D01*
X195565000Y-126004985D01*
X195697006Y-126668619D01*
X195955943Y-127293749D01*
X196331862Y-127856352D01*
X196810315Y-128334805D01*
X197372918Y-128710724D01*
X197998048Y-128969661D01*
X198661682Y-129101667D01*
X199338318Y-129101667D01*
X199873000Y-128995311D01*
X199873000Y-147873000D01*
X180728282Y-147873000D01*
X180768333Y-147671652D01*
X180768333Y-146995016D01*
X180636327Y-146331382D01*
X180377390Y-145706252D01*
X180001471Y-145143649D01*
X179523018Y-144665196D01*
X178960415Y-144289277D01*
X178335285Y-144030340D01*
X177671651Y-143898334D01*
X176995015Y-143898334D01*
X176331381Y-144030340D01*
X175706251Y-144289277D01*
X175143648Y-144665196D01*
X174665195Y-145143649D01*
X174289276Y-145706252D01*
X174030339Y-146331382D01*
X173898333Y-146995016D01*
X173898333Y-147671652D01*
X173938384Y-147873000D01*
X154061615Y-147873000D01*
X154101666Y-147671652D01*
X154101666Y-146995016D01*
X153969660Y-146331382D01*
X153710723Y-145706252D01*
X153334804Y-145143649D01*
X152856351Y-144665196D01*
X152293748Y-144289277D01*
X151668618Y-144030340D01*
X151004984Y-143898334D01*
X150328348Y-143898334D01*
X149664714Y-144030340D01*
X149039584Y-144289277D01*
X148476981Y-144665196D01*
X147998528Y-145143649D01*
X147622609Y-145706252D01*
X147363672Y-146331382D01*
X147231666Y-146995016D01*
X147231666Y-147671652D01*
X147271717Y-147873000D01*
X128127000Y-147873000D01*
X128127000Y-128995311D01*
X128661682Y-129101667D01*
X129338318Y-129101667D01*
X130001952Y-128969661D01*
X130627082Y-128710724D01*
X131189685Y-128334805D01*
X131668138Y-127856352D01*
X132044057Y-127293749D01*
X132302994Y-126668619D01*
X132435000Y-126004985D01*
X132435000Y-125328349D01*
X132302994Y-124664715D01*
X132044057Y-124039585D01*
X131819524Y-123703546D01*
X139168000Y-123703546D01*
X139168000Y-123927122D01*
X139211617Y-124146401D01*
X139297176Y-124352958D01*
X139421388Y-124538854D01*
X139579480Y-124696946D01*
X139765376Y-124821158D01*
X139971933Y-124906717D01*
X140191212Y-124950334D01*
X140414788Y-124950334D01*
X140634067Y-124906717D01*
X140840624Y-124821158D01*
X141015463Y-124704334D01*
X176962340Y-124704334D01*
X177006000Y-124708634D01*
X177049660Y-124704334D01*
X177049667Y-124704334D01*
X177180274Y-124691470D01*
X177347851Y-124640637D01*
X177502291Y-124558087D01*
X177637659Y-124446993D01*
X177665499Y-124413070D01*
X178905741Y-123172828D01*
X178939659Y-123144993D01*
X179050753Y-123009625D01*
X179133303Y-122855185D01*
X179184136Y-122687608D01*
X179184853Y-122680334D01*
X179190538Y-122622610D01*
X179197000Y-122557001D01*
X179197000Y-122556995D01*
X179201300Y-122513335D01*
X179197000Y-122469675D01*
X179197000Y-121019849D01*
X179222759Y-121002637D01*
X179422637Y-120802759D01*
X179578000Y-120570241D01*
X179733363Y-120802759D01*
X179933241Y-121002637D01*
X180168273Y-121159680D01*
X180429426Y-121267853D01*
X180706665Y-121323000D01*
X180989335Y-121323000D01*
X181266574Y-121267853D01*
X181527727Y-121159680D01*
X181762759Y-121002637D01*
X181962637Y-120802759D01*
X182118000Y-120570241D01*
X182273363Y-120802759D01*
X182473241Y-121002637D01*
X182708273Y-121159680D01*
X182969426Y-121267853D01*
X183246665Y-121323000D01*
X183529335Y-121323000D01*
X183806574Y-121267853D01*
X184067727Y-121159680D01*
X184302759Y-121002637D01*
X184502637Y-120802759D01*
X184658000Y-120570241D01*
X184813363Y-120802759D01*
X185013241Y-121002637D01*
X185248273Y-121159680D01*
X185509426Y-121267853D01*
X185786665Y-121323000D01*
X186069335Y-121323000D01*
X186346574Y-121267853D01*
X186607727Y-121159680D01*
X186842759Y-121002637D01*
X187042637Y-120802759D01*
X187198000Y-120570241D01*
X187353363Y-120802759D01*
X187553241Y-121002637D01*
X187788273Y-121159680D01*
X188049426Y-121267853D01*
X188326665Y-121323000D01*
X188609335Y-121323000D01*
X188886574Y-121267853D01*
X189147727Y-121159680D01*
X189382759Y-121002637D01*
X189582637Y-120802759D01*
X189738000Y-120570241D01*
X189893363Y-120802759D01*
X190093241Y-121002637D01*
X190328273Y-121159680D01*
X190589426Y-121267853D01*
X190866665Y-121323000D01*
X191149335Y-121323000D01*
X191426574Y-121267853D01*
X191687727Y-121159680D01*
X191922759Y-121002637D01*
X192122637Y-120802759D01*
X192278000Y-120570241D01*
X192433363Y-120802759D01*
X192633241Y-121002637D01*
X192868273Y-121159680D01*
X193129426Y-121267853D01*
X193406665Y-121323000D01*
X193689335Y-121323000D01*
X193966574Y-121267853D01*
X194227727Y-121159680D01*
X194462759Y-121002637D01*
X194662637Y-120802759D01*
X194819680Y-120567727D01*
X194927853Y-120306574D01*
X194983000Y-120029335D01*
X194983000Y-119746665D01*
X194927853Y-119469426D01*
X194819680Y-119208273D01*
X194662637Y-118973241D01*
X194462759Y-118773363D01*
X194227727Y-118616320D01*
X193966574Y-118508147D01*
X193689335Y-118453000D01*
X193406665Y-118453000D01*
X193129426Y-118508147D01*
X192868273Y-118616320D01*
X192633241Y-118773363D01*
X192433363Y-118973241D01*
X192278000Y-119205759D01*
X192122637Y-118973241D01*
X191922759Y-118773363D01*
X191897000Y-118756151D01*
X191897000Y-111676660D01*
X191901300Y-111633000D01*
X191897000Y-111589340D01*
X191897000Y-111589333D01*
X191884136Y-111458726D01*
X191883673Y-111457198D01*
X191853526Y-111357816D01*
X191833303Y-111291149D01*
X191750753Y-111136709D01*
X191639659Y-111001341D01*
X191605742Y-110973506D01*
X186817000Y-106184765D01*
X186817000Y-105779849D01*
X186842759Y-105762637D01*
X187042637Y-105562759D01*
X187198000Y-105330241D01*
X187353363Y-105562759D01*
X187553241Y-105762637D01*
X187788273Y-105919680D01*
X188049426Y-106027853D01*
X188326665Y-106083000D01*
X188609335Y-106083000D01*
X188886574Y-106027853D01*
X189147727Y-105919680D01*
X189382759Y-105762637D01*
X189582637Y-105562759D01*
X189738000Y-105330241D01*
X189893363Y-105562759D01*
X190093241Y-105762637D01*
X190328273Y-105919680D01*
X190589426Y-106027853D01*
X190866665Y-106083000D01*
X191149335Y-106083000D01*
X191426574Y-106027853D01*
X191687727Y-105919680D01*
X191922759Y-105762637D01*
X192121357Y-105564039D01*
X192122188Y-105572482D01*
X192158498Y-105692180D01*
X192217463Y-105802494D01*
X192296815Y-105899185D01*
X192393506Y-105978537D01*
X192503820Y-106037502D01*
X192623518Y-106073812D01*
X192748000Y-106086072D01*
X194348000Y-106086072D01*
X194472482Y-106073812D01*
X194592180Y-106037502D01*
X194702494Y-105978537D01*
X194799185Y-105899185D01*
X194878537Y-105802494D01*
X194937502Y-105692180D01*
X194973812Y-105572482D01*
X194986072Y-105448000D01*
X194986072Y-103848000D01*
X194973812Y-103723518D01*
X194937502Y-103603820D01*
X194878537Y-103493506D01*
X194799185Y-103396815D01*
X194702494Y-103317463D01*
X194592180Y-103258498D01*
X194472482Y-103222188D01*
X194348000Y-103209928D01*
X192748000Y-103209928D01*
X192623518Y-103222188D01*
X192503820Y-103258498D01*
X192393506Y-103317463D01*
X192296815Y-103396815D01*
X192217463Y-103493506D01*
X192158498Y-103603820D01*
X192122188Y-103723518D01*
X192121357Y-103731961D01*
X191922759Y-103533363D01*
X191687727Y-103376320D01*
X191426574Y-103268147D01*
X191149335Y-103213000D01*
X190866665Y-103213000D01*
X190589426Y-103268147D01*
X190328273Y-103376320D01*
X190093241Y-103533363D01*
X189893363Y-103733241D01*
X189738000Y-103965759D01*
X189582637Y-103733241D01*
X189382759Y-103533363D01*
X189147727Y-103376320D01*
X188886574Y-103268147D01*
X188609335Y-103213000D01*
X188326665Y-103213000D01*
X188049426Y-103268147D01*
X187788273Y-103376320D01*
X187553241Y-103533363D01*
X187353363Y-103733241D01*
X187198000Y-103965759D01*
X187042637Y-103733241D01*
X186842759Y-103533363D01*
X186607727Y-103376320D01*
X186346574Y-103268147D01*
X186069335Y-103213000D01*
X185786665Y-103213000D01*
X185509426Y-103268147D01*
X185248273Y-103376320D01*
X185013241Y-103533363D01*
X184813363Y-103733241D01*
X184658000Y-103965759D01*
X184502637Y-103733241D01*
X184302759Y-103533363D01*
X184067727Y-103376320D01*
X183806574Y-103268147D01*
X183529335Y-103213000D01*
X183246665Y-103213000D01*
X182969426Y-103268147D01*
X182708273Y-103376320D01*
X182473241Y-103533363D01*
X182273363Y-103733241D01*
X182118000Y-103965759D01*
X181962637Y-103733241D01*
X181762759Y-103533363D01*
X181527727Y-103376320D01*
X181266574Y-103268147D01*
X180989335Y-103213000D01*
X180706665Y-103213000D01*
X180429426Y-103268147D01*
X180168273Y-103376320D01*
X179933241Y-103533363D01*
X179733363Y-103733241D01*
X179578000Y-103965759D01*
X179422637Y-103733241D01*
X179222759Y-103533363D01*
X178987727Y-103376320D01*
X178726574Y-103268147D01*
X178449335Y-103213000D01*
X178166665Y-103213000D01*
X177889426Y-103268147D01*
X177628273Y-103376320D01*
X177393241Y-103533363D01*
X177193363Y-103733241D01*
X177038000Y-103965759D01*
X176882637Y-103733241D01*
X176682759Y-103533363D01*
X176447727Y-103376320D01*
X176186574Y-103268147D01*
X175909335Y-103213000D01*
X175626665Y-103213000D01*
X175349426Y-103268147D01*
X175088273Y-103376320D01*
X174853241Y-103533363D01*
X174653363Y-103733241D01*
X174498000Y-103965759D01*
X174342637Y-103733241D01*
X174142759Y-103533363D01*
X173907727Y-103376320D01*
X173646574Y-103268147D01*
X173369335Y-103213000D01*
X173086665Y-103213000D01*
X172809426Y-103268147D01*
X172548273Y-103376320D01*
X172313241Y-103533363D01*
X172113363Y-103733241D01*
X171958000Y-103965759D01*
X171802637Y-103733241D01*
X171602759Y-103533363D01*
X171367727Y-103376320D01*
X171106574Y-103268147D01*
X170829335Y-103213000D01*
X170546665Y-103213000D01*
X170269426Y-103268147D01*
X170008273Y-103376320D01*
X169773241Y-103533363D01*
X169573363Y-103733241D01*
X169418000Y-103965759D01*
X169262637Y-103733241D01*
X169062759Y-103533363D01*
X168827727Y-103376320D01*
X168566574Y-103268147D01*
X168289335Y-103213000D01*
X168006665Y-103213000D01*
X167729426Y-103268147D01*
X167468273Y-103376320D01*
X167233241Y-103533363D01*
X167033363Y-103733241D01*
X166878000Y-103965759D01*
X166722637Y-103733241D01*
X166522759Y-103533363D01*
X166287727Y-103376320D01*
X166026574Y-103268147D01*
X165749335Y-103213000D01*
X165466665Y-103213000D01*
X165189426Y-103268147D01*
X164928273Y-103376320D01*
X164693241Y-103533363D01*
X164493363Y-103733241D01*
X164338000Y-103965759D01*
X164182637Y-103733241D01*
X163982759Y-103533363D01*
X163747727Y-103376320D01*
X163486574Y-103268147D01*
X163209335Y-103213000D01*
X162926665Y-103213000D01*
X162649426Y-103268147D01*
X162388273Y-103376320D01*
X162153241Y-103533363D01*
X161953363Y-103733241D01*
X161798000Y-103965759D01*
X161642637Y-103733241D01*
X161442759Y-103533363D01*
X161207727Y-103376320D01*
X160946574Y-103268147D01*
X160669335Y-103213000D01*
X160386665Y-103213000D01*
X160109426Y-103268147D01*
X159848273Y-103376320D01*
X159613241Y-103533363D01*
X159413363Y-103733241D01*
X159258000Y-103965759D01*
X159102637Y-103733241D01*
X158902759Y-103533363D01*
X158667727Y-103376320D01*
X158406574Y-103268147D01*
X158129335Y-103213000D01*
X157846665Y-103213000D01*
X157569426Y-103268147D01*
X157308273Y-103376320D01*
X157073241Y-103533363D01*
X156873363Y-103733241D01*
X156716320Y-103968273D01*
X156608147Y-104229426D01*
X156553000Y-104506665D01*
X156553000Y-104789335D01*
X156608147Y-105066574D01*
X156716320Y-105327727D01*
X156873363Y-105562759D01*
X157073241Y-105762637D01*
X157308273Y-105919680D01*
X157569426Y-106027853D01*
X157846665Y-106083000D01*
X158129335Y-106083000D01*
X158406574Y-106027853D01*
X158667727Y-105919680D01*
X158902759Y-105762637D01*
X159102637Y-105562759D01*
X159258000Y-105330241D01*
X159413363Y-105562759D01*
X159613241Y-105762637D01*
X159848273Y-105919680D01*
X160109426Y-106027853D01*
X160386665Y-106083000D01*
X160669335Y-106083000D01*
X160946574Y-106027853D01*
X161207727Y-105919680D01*
X161442759Y-105762637D01*
X161642637Y-105562759D01*
X161798000Y-105330241D01*
X161953363Y-105562759D01*
X162153241Y-105762637D01*
X162388273Y-105919680D01*
X162649426Y-106027853D01*
X162926665Y-106083000D01*
X163209335Y-106083000D01*
X163486574Y-106027853D01*
X163747727Y-105919680D01*
X163982759Y-105762637D01*
X164182637Y-105562759D01*
X164338000Y-105330241D01*
X164493363Y-105562759D01*
X164693241Y-105762637D01*
X164928273Y-105919680D01*
X165189426Y-106027853D01*
X165466665Y-106083000D01*
X165749335Y-106083000D01*
X166026574Y-106027853D01*
X166287727Y-105919680D01*
X166522759Y-105762637D01*
X166722637Y-105562759D01*
X166878000Y-105330241D01*
X167033363Y-105562759D01*
X167233241Y-105762637D01*
X167468273Y-105919680D01*
X167729426Y-106027853D01*
X168006665Y-106083000D01*
X168289335Y-106083000D01*
X168566574Y-106027853D01*
X168827727Y-105919680D01*
X169062759Y-105762637D01*
X169262637Y-105562759D01*
X169418000Y-105330241D01*
X169573363Y-105562759D01*
X169773241Y-105762637D01*
X170008273Y-105919680D01*
X170269426Y-106027853D01*
X170546665Y-106083000D01*
X170829335Y-106083000D01*
X171106574Y-106027853D01*
X171367727Y-105919680D01*
X171602759Y-105762637D01*
X171802637Y-105562759D01*
X171958000Y-105330241D01*
X172113363Y-105562759D01*
X172313241Y-105762637D01*
X172548273Y-105919680D01*
X172809426Y-106027853D01*
X173086665Y-106083000D01*
X173369335Y-106083000D01*
X173646574Y-106027853D01*
X173907727Y-105919680D01*
X174142759Y-105762637D01*
X174342637Y-105562759D01*
X174498000Y-105330241D01*
X174653363Y-105562759D01*
X174853241Y-105762637D01*
X175088273Y-105919680D01*
X175349426Y-106027853D01*
X175626665Y-106083000D01*
X175909335Y-106083000D01*
X176186574Y-106027853D01*
X176447727Y-105919680D01*
X176682759Y-105762637D01*
X176882637Y-105562759D01*
X177038000Y-105330241D01*
X177193363Y-105562759D01*
X177393241Y-105762637D01*
X177628273Y-105919680D01*
X177889426Y-106027853D01*
X178166665Y-106083000D01*
X178449335Y-106083000D01*
X178726574Y-106027853D01*
X178987727Y-105919680D01*
X179222759Y-105762637D01*
X179422637Y-105562759D01*
X179578000Y-105330241D01*
X179733363Y-105562759D01*
X179933241Y-105762637D01*
X180168273Y-105919680D01*
X180429426Y-106027853D01*
X180706665Y-106083000D01*
X180989335Y-106083000D01*
X181266574Y-106027853D01*
X181527727Y-105919680D01*
X181762759Y-105762637D01*
X181962637Y-105562759D01*
X182118000Y-105330241D01*
X182273363Y-105562759D01*
X182473241Y-105762637D01*
X182708273Y-105919680D01*
X182969426Y-106027853D01*
X183246665Y-106083000D01*
X183529335Y-106083000D01*
X183806574Y-106027853D01*
X184067727Y-105919680D01*
X184302759Y-105762637D01*
X184502637Y-105562759D01*
X184658000Y-105330241D01*
X184813363Y-105562759D01*
X185013241Y-105762637D01*
X185039000Y-105779849D01*
X185039000Y-106509340D01*
X185034700Y-106553000D01*
X185039000Y-106596660D01*
X185039000Y-106596666D01*
X185051864Y-106727273D01*
X185102697Y-106894850D01*
X185185247Y-107049290D01*
X185296341Y-107184659D01*
X185330264Y-107212499D01*
X190119001Y-112001237D01*
X190119000Y-118756151D01*
X190093241Y-118773363D01*
X189893363Y-118973241D01*
X189738000Y-119205759D01*
X189582637Y-118973241D01*
X189382759Y-118773363D01*
X189147727Y-118616320D01*
X188886574Y-118508147D01*
X188609335Y-118453000D01*
X188326665Y-118453000D01*
X188049426Y-118508147D01*
X187788273Y-118616320D01*
X187553241Y-118773363D01*
X187353363Y-118973241D01*
X187198000Y-119205759D01*
X187042637Y-118973241D01*
X186842759Y-118773363D01*
X186817000Y-118756151D01*
X186817000Y-114111993D01*
X186821300Y-114068333D01*
X186817000Y-114024673D01*
X186817000Y-112206995D01*
X186821300Y-112163335D01*
X186817000Y-112119675D01*
X186817000Y-111063994D01*
X186821300Y-111020334D01*
X186817000Y-110976674D01*
X186817000Y-110976667D01*
X186804136Y-110846060D01*
X186753303Y-110678483D01*
X186670753Y-110524043D01*
X186559659Y-110388675D01*
X186525737Y-110360836D01*
X186200499Y-110035598D01*
X186172659Y-110001675D01*
X186037291Y-109890581D01*
X185882851Y-109808031D01*
X185715274Y-109757198D01*
X185584667Y-109744334D01*
X185584660Y-109744334D01*
X185541000Y-109740034D01*
X185497340Y-109744334D01*
X171965545Y-109744334D01*
X171930537Y-109678840D01*
X171851185Y-109582149D01*
X171754494Y-109502797D01*
X171644180Y-109443832D01*
X171524482Y-109407522D01*
X171400000Y-109395262D01*
X168850000Y-109395262D01*
X168725518Y-109407522D01*
X168605820Y-109443832D01*
X168495506Y-109502797D01*
X168398815Y-109582149D01*
X168319463Y-109678840D01*
X168260498Y-109789154D01*
X168224188Y-109908852D01*
X168211928Y-110033334D01*
X168211928Y-111233334D01*
X168224188Y-111357816D01*
X168260498Y-111477514D01*
X168263609Y-111483334D01*
X168260498Y-111489154D01*
X168224188Y-111608852D01*
X168211928Y-111733334D01*
X168211928Y-112933334D01*
X168224188Y-113057816D01*
X168260498Y-113177514D01*
X168263609Y-113183334D01*
X168260498Y-113189154D01*
X168224188Y-113308852D01*
X168211928Y-113433334D01*
X168211928Y-114633334D01*
X168224188Y-114757816D01*
X168260498Y-114877514D01*
X168319463Y-114987828D01*
X168398815Y-115084519D01*
X168495506Y-115163871D01*
X168605820Y-115222836D01*
X168725518Y-115259146D01*
X168850000Y-115271406D01*
X171400000Y-115271406D01*
X171524482Y-115259146D01*
X171644180Y-115222836D01*
X171754494Y-115163871D01*
X171851185Y-115084519D01*
X171930537Y-114987828D01*
X171965545Y-114922334D01*
X185039000Y-114922334D01*
X185039001Y-118756151D01*
X185013241Y-118773363D01*
X184813363Y-118973241D01*
X184658000Y-119205759D01*
X184502637Y-118973241D01*
X184302759Y-118773363D01*
X184067727Y-118616320D01*
X183806574Y-118508147D01*
X183529335Y-118453000D01*
X183246665Y-118453000D01*
X182969426Y-118508147D01*
X182708273Y-118616320D01*
X182473241Y-118773363D01*
X182273363Y-118973241D01*
X182118000Y-119205759D01*
X181962637Y-118973241D01*
X181762759Y-118773363D01*
X181527727Y-118616320D01*
X181266574Y-118508147D01*
X180989335Y-118453000D01*
X180706665Y-118453000D01*
X180429426Y-118508147D01*
X180168273Y-118616320D01*
X179933241Y-118773363D01*
X179733363Y-118973241D01*
X179578000Y-119205759D01*
X179422637Y-118973241D01*
X179222759Y-118773363D01*
X178987727Y-118616320D01*
X178726574Y-118508147D01*
X178449335Y-118453000D01*
X178166665Y-118453000D01*
X177889426Y-118508147D01*
X177628273Y-118616320D01*
X177393241Y-118773363D01*
X177193363Y-118973241D01*
X177038000Y-119205759D01*
X176882637Y-118973241D01*
X176682759Y-118773363D01*
X176447727Y-118616320D01*
X176186574Y-118508147D01*
X175909335Y-118453000D01*
X175626665Y-118453000D01*
X175349426Y-118508147D01*
X175088273Y-118616320D01*
X174853241Y-118773363D01*
X174653363Y-118973241D01*
X174498000Y-119205759D01*
X174342637Y-118973241D01*
X174142759Y-118773363D01*
X173907727Y-118616320D01*
X173646574Y-118508147D01*
X173369335Y-118453000D01*
X173086665Y-118453000D01*
X172809426Y-118508147D01*
X172548273Y-118616320D01*
X172313241Y-118773363D01*
X172113363Y-118973241D01*
X171958000Y-119205759D01*
X171802637Y-118973241D01*
X171602759Y-118773363D01*
X171367727Y-118616320D01*
X171106574Y-118508147D01*
X170829335Y-118453000D01*
X170546665Y-118453000D01*
X170269426Y-118508147D01*
X170008273Y-118616320D01*
X169773241Y-118773363D01*
X169573363Y-118973241D01*
X169418000Y-119205759D01*
X169262637Y-118973241D01*
X169062759Y-118773363D01*
X168827727Y-118616320D01*
X168566574Y-118508147D01*
X168289335Y-118453000D01*
X168006665Y-118453000D01*
X167729426Y-118508147D01*
X167468273Y-118616320D01*
X167233241Y-118773363D01*
X167033363Y-118973241D01*
X166878000Y-119205759D01*
X166722637Y-118973241D01*
X166522759Y-118773363D01*
X166287727Y-118616320D01*
X166026574Y-118508147D01*
X165749335Y-118453000D01*
X165466665Y-118453000D01*
X165189426Y-118508147D01*
X164928273Y-118616320D01*
X164693241Y-118773363D01*
X164493363Y-118973241D01*
X164338000Y-119205759D01*
X164182637Y-118973241D01*
X163982759Y-118773363D01*
X163747727Y-118616320D01*
X163486574Y-118508147D01*
X163209335Y-118453000D01*
X162926665Y-118453000D01*
X162649426Y-118508147D01*
X162388273Y-118616320D01*
X162153241Y-118773363D01*
X161953363Y-118973241D01*
X161798000Y-119205759D01*
X161642637Y-118973241D01*
X161442759Y-118773363D01*
X161207727Y-118616320D01*
X160946574Y-118508147D01*
X160669335Y-118453000D01*
X160386665Y-118453000D01*
X160109426Y-118508147D01*
X159848273Y-118616320D01*
X159613241Y-118773363D01*
X159413363Y-118973241D01*
X159258000Y-119205759D01*
X159102637Y-118973241D01*
X158902759Y-118773363D01*
X158667727Y-118616320D01*
X158406574Y-118508147D01*
X158129335Y-118453000D01*
X157846665Y-118453000D01*
X157569426Y-118508147D01*
X157308273Y-118616320D01*
X157073241Y-118773363D01*
X156873363Y-118973241D01*
X156716320Y-119208273D01*
X156608147Y-119469426D01*
X156553000Y-119746665D01*
X156553000Y-120029335D01*
X156608147Y-120306574D01*
X156716320Y-120567727D01*
X156873363Y-120802759D01*
X157073241Y-121002637D01*
X157308273Y-121159680D01*
X157569426Y-121267853D01*
X157846665Y-121323000D01*
X158129335Y-121323000D01*
X158406574Y-121267853D01*
X158667727Y-121159680D01*
X158902759Y-121002637D01*
X159102637Y-120802759D01*
X159258000Y-120570241D01*
X159413363Y-120802759D01*
X159613241Y-121002637D01*
X159848273Y-121159680D01*
X160109426Y-121267853D01*
X160386665Y-121323000D01*
X160669335Y-121323000D01*
X160946574Y-121267853D01*
X161207727Y-121159680D01*
X161442759Y-121002637D01*
X161642637Y-120802759D01*
X161798000Y-120570241D01*
X161953363Y-120802759D01*
X162153241Y-121002637D01*
X162388273Y-121159680D01*
X162649426Y-121267853D01*
X162926665Y-121323000D01*
X163209335Y-121323000D01*
X163486574Y-121267853D01*
X163747727Y-121159680D01*
X163982759Y-121002637D01*
X164182637Y-120802759D01*
X164338000Y-120570241D01*
X164493363Y-120802759D01*
X164693241Y-121002637D01*
X164928273Y-121159680D01*
X165189426Y-121267853D01*
X165466665Y-121323000D01*
X165749335Y-121323000D01*
X166026574Y-121267853D01*
X166287727Y-121159680D01*
X166522759Y-121002637D01*
X166722637Y-120802759D01*
X166878000Y-120570241D01*
X167033363Y-120802759D01*
X167233241Y-121002637D01*
X167468273Y-121159680D01*
X167729426Y-121267853D01*
X168006665Y-121323000D01*
X168289335Y-121323000D01*
X168566574Y-121267853D01*
X168827727Y-121159680D01*
X169062759Y-121002637D01*
X169262637Y-120802759D01*
X169418000Y-120570241D01*
X169573363Y-120802759D01*
X169773241Y-121002637D01*
X170008273Y-121159680D01*
X170269426Y-121267853D01*
X170546665Y-121323000D01*
X170829335Y-121323000D01*
X171106574Y-121267853D01*
X171367727Y-121159680D01*
X171602759Y-121002637D01*
X171802637Y-120802759D01*
X171958000Y-120570241D01*
X172113363Y-120802759D01*
X172313241Y-121002637D01*
X172548273Y-121159680D01*
X172809426Y-121267853D01*
X173086665Y-121323000D01*
X173369335Y-121323000D01*
X173646574Y-121267853D01*
X173907727Y-121159680D01*
X174142759Y-121002637D01*
X174342637Y-120802759D01*
X174498000Y-120570241D01*
X174653363Y-120802759D01*
X174853241Y-121002637D01*
X175088273Y-121159680D01*
X175349426Y-121267853D01*
X175626665Y-121323000D01*
X175909335Y-121323000D01*
X176186574Y-121267853D01*
X176447727Y-121159680D01*
X176682759Y-121002637D01*
X176882637Y-120802759D01*
X177038000Y-120570241D01*
X177193363Y-120802759D01*
X177393241Y-121002637D01*
X177419000Y-121019849D01*
X177419001Y-122145097D01*
X176637765Y-122926334D01*
X141015463Y-122926334D01*
X140840624Y-122809510D01*
X140634067Y-122723951D01*
X140414788Y-122680334D01*
X140191212Y-122680334D01*
X139971933Y-122723951D01*
X139765376Y-122809510D01*
X139579480Y-122933722D01*
X139421388Y-123091814D01*
X139297176Y-123277710D01*
X139211617Y-123484267D01*
X139168000Y-123703546D01*
X131819524Y-123703546D01*
X131668138Y-123476982D01*
X131189685Y-122998529D01*
X130627082Y-122622610D01*
X130001952Y-122363673D01*
X129338318Y-122231667D01*
X128661682Y-122231667D01*
X128127000Y-122338023D01*
X128127000Y-107163999D01*
X135693000Y-107163999D01*
X135693000Y-107446669D01*
X135748147Y-107723908D01*
X135856320Y-107985061D01*
X136013363Y-108220093D01*
X136213241Y-108419971D01*
X136239001Y-108437183D01*
X136239000Y-111706674D01*
X136234700Y-111750334D01*
X136239000Y-111793994D01*
X136239000Y-111794000D01*
X136251864Y-111924607D01*
X136302697Y-112092184D01*
X136385247Y-112246624D01*
X136496341Y-112381993D01*
X136530264Y-112409833D01*
X138751504Y-114631074D01*
X138779341Y-114664993D01*
X138914709Y-114776087D01*
X139069149Y-114858637D01*
X139184527Y-114893636D01*
X139236725Y-114909470D01*
X139411000Y-114926635D01*
X139454668Y-114922334D01*
X156034455Y-114922334D01*
X156069463Y-114987828D01*
X156148815Y-115084519D01*
X156245506Y-115163871D01*
X156355820Y-115222836D01*
X156475518Y-115259146D01*
X156600000Y-115271406D01*
X159150000Y-115271406D01*
X159274482Y-115259146D01*
X159394180Y-115222836D01*
X159504494Y-115163871D01*
X159601185Y-115084519D01*
X159680537Y-114987828D01*
X159739502Y-114877514D01*
X159775812Y-114757816D01*
X159788072Y-114633334D01*
X159788072Y-113433334D01*
X159775812Y-113308852D01*
X159739502Y-113189154D01*
X159736391Y-113183334D01*
X159739502Y-113177514D01*
X159775812Y-113057816D01*
X159788072Y-112933334D01*
X159788072Y-111965469D01*
X160265000Y-111965469D01*
X160265000Y-112701199D01*
X160408534Y-113422793D01*
X160690086Y-114102520D01*
X161098836Y-114714258D01*
X161619076Y-115234498D01*
X162230814Y-115643248D01*
X162910541Y-115924800D01*
X163632135Y-116068334D01*
X164367865Y-116068334D01*
X165089459Y-115924800D01*
X165769186Y-115643248D01*
X166380924Y-115234498D01*
X166901164Y-114714258D01*
X167309914Y-114102520D01*
X167591466Y-113422793D01*
X167735000Y-112701199D01*
X167735000Y-111965469D01*
X167591466Y-111243875D01*
X167309914Y-110564148D01*
X166901164Y-109952410D01*
X166380924Y-109432170D01*
X165769186Y-109023420D01*
X165089459Y-108741868D01*
X164367865Y-108598334D01*
X163632135Y-108598334D01*
X162910541Y-108741868D01*
X162230814Y-109023420D01*
X161619076Y-109432170D01*
X161098836Y-109952410D01*
X160690086Y-110564148D01*
X160408534Y-111243875D01*
X160265000Y-111965469D01*
X159788072Y-111965469D01*
X159788072Y-111733334D01*
X159775812Y-111608852D01*
X159739502Y-111489154D01*
X159736391Y-111483334D01*
X159739502Y-111477514D01*
X159775812Y-111357816D01*
X159788072Y-111233334D01*
X159788072Y-110033334D01*
X159775812Y-109908852D01*
X159739502Y-109789154D01*
X159680537Y-109678840D01*
X159601185Y-109582149D01*
X159504494Y-109502797D01*
X159394180Y-109443832D01*
X159274482Y-109407522D01*
X159150000Y-109395262D01*
X156600000Y-109395262D01*
X156475518Y-109407522D01*
X156355820Y-109443832D01*
X156245506Y-109502797D01*
X156148815Y-109582149D01*
X156069463Y-109678840D01*
X156034455Y-109744334D01*
X150095236Y-109744334D01*
X147954956Y-107604055D01*
X147961000Y-107573669D01*
X147961000Y-107290999D01*
X147905853Y-107013760D01*
X147797680Y-106752607D01*
X147640637Y-106517575D01*
X147440759Y-106317697D01*
X147205727Y-106160654D01*
X146944574Y-106052481D01*
X146667335Y-105997334D01*
X146384665Y-105997334D01*
X146107426Y-106052481D01*
X145846273Y-106160654D01*
X145611241Y-106317697D01*
X145411363Y-106517575D01*
X145254320Y-106752607D01*
X145146147Y-107013760D01*
X145091000Y-107290999D01*
X145091000Y-107573669D01*
X145146147Y-107850908D01*
X145254320Y-108112061D01*
X145411363Y-108347093D01*
X145611241Y-108546971D01*
X145846273Y-108704014D01*
X146107426Y-108812187D01*
X146384665Y-108867334D01*
X146667335Y-108867334D01*
X146697721Y-108861290D01*
X149067504Y-111231074D01*
X149095341Y-111264993D01*
X149230709Y-111376087D01*
X149358390Y-111444334D01*
X146862236Y-111444334D01*
X142922956Y-107505055D01*
X142929000Y-107474669D01*
X142929000Y-107191999D01*
X142873853Y-106914760D01*
X142765680Y-106653607D01*
X142608637Y-106418575D01*
X142408759Y-106218697D01*
X142173727Y-106061654D01*
X141912574Y-105953481D01*
X141635335Y-105898334D01*
X141352665Y-105898334D01*
X141075426Y-105953481D01*
X140814273Y-106061654D01*
X140579241Y-106218697D01*
X140379363Y-106418575D01*
X140222320Y-106653607D01*
X140114147Y-106914760D01*
X140059000Y-107191999D01*
X140059000Y-107474669D01*
X140114147Y-107751908D01*
X140222320Y-108013061D01*
X140379363Y-108248093D01*
X140579241Y-108447971D01*
X140814273Y-108605014D01*
X141075426Y-108713187D01*
X141352665Y-108768334D01*
X141635335Y-108768334D01*
X141665721Y-108762290D01*
X145834506Y-112931076D01*
X145862341Y-112964993D01*
X145997709Y-113076087D01*
X146125390Y-113144334D01*
X139779236Y-113144334D01*
X138017000Y-111382099D01*
X138017000Y-108437183D01*
X138042759Y-108419971D01*
X138242637Y-108220093D01*
X138399680Y-107985061D01*
X138507853Y-107723908D01*
X138563000Y-107446669D01*
X138563000Y-107163999D01*
X138507853Y-106886760D01*
X138399680Y-106625607D01*
X138242637Y-106390575D01*
X138042759Y-106190697D01*
X137807727Y-106033654D01*
X137546574Y-105925481D01*
X137269335Y-105870334D01*
X136986665Y-105870334D01*
X136709426Y-105925481D01*
X136448273Y-106033654D01*
X136213241Y-106190697D01*
X136013363Y-106390575D01*
X135856320Y-106625607D01*
X135748147Y-106886760D01*
X135693000Y-107163999D01*
X128127000Y-107163999D01*
X128127000Y-102328644D01*
X128661682Y-102435000D01*
X129338318Y-102435000D01*
X130001952Y-102302994D01*
X130627082Y-102044057D01*
X131189685Y-101668138D01*
X131668138Y-101189685D01*
X132044057Y-100627082D01*
X132302994Y-100001952D01*
X132435000Y-99338318D01*
X132435000Y-98661682D01*
X132302994Y-97998048D01*
X132044057Y-97372918D01*
X131797554Y-97003999D01*
X135693000Y-97003999D01*
X135693000Y-97286669D01*
X135748147Y-97563908D01*
X135856320Y-97825061D01*
X136013363Y-98060093D01*
X136213241Y-98259971D01*
X136448273Y-98417014D01*
X136709426Y-98525187D01*
X136986665Y-98580334D01*
X137269335Y-98580334D01*
X137546574Y-98525187D01*
X137807727Y-98417014D01*
X138042759Y-98259971D01*
X138242637Y-98060093D01*
X138399680Y-97825061D01*
X138507853Y-97563908D01*
X138563000Y-97286669D01*
X138563000Y-97003999D01*
X138507853Y-96726760D01*
X138399680Y-96465607D01*
X138242637Y-96230575D01*
X138042759Y-96030697D01*
X138017000Y-96013485D01*
X138017000Y-92560569D01*
X139975235Y-90602334D01*
X144923040Y-90602334D01*
X144914149Y-90605031D01*
X144759709Y-90687581D01*
X144624341Y-90798675D01*
X144596501Y-90832598D01*
X140896259Y-94532840D01*
X140862342Y-94560675D01*
X140834507Y-94594592D01*
X140834505Y-94594594D01*
X140751248Y-94696043D01*
X140668698Y-94850482D01*
X140617864Y-95018060D01*
X140600700Y-95192334D01*
X140605001Y-95236004D01*
X140605001Y-96041485D01*
X140579241Y-96058697D01*
X140379363Y-96258575D01*
X140222320Y-96493607D01*
X140114147Y-96754760D01*
X140059000Y-97031999D01*
X140059000Y-97314669D01*
X140114147Y-97591908D01*
X140222320Y-97853061D01*
X140379363Y-98088093D01*
X140579241Y-98287971D01*
X140814273Y-98445014D01*
X141075426Y-98553187D01*
X141352665Y-98608334D01*
X141635335Y-98608334D01*
X141912574Y-98553187D01*
X142173727Y-98445014D01*
X142408759Y-98287971D01*
X142608637Y-98088093D01*
X142765680Y-97853061D01*
X142873853Y-97591908D01*
X142929000Y-97314669D01*
X142929000Y-97031999D01*
X142873853Y-96754760D01*
X142765680Y-96493607D01*
X142608637Y-96258575D01*
X142408759Y-96058697D01*
X142383000Y-96041485D01*
X142383000Y-95560569D01*
X145624235Y-92319334D01*
X148057412Y-92319334D01*
X148053341Y-92322675D01*
X148025506Y-92356592D01*
X145928259Y-94453840D01*
X145894342Y-94481675D01*
X145866507Y-94515592D01*
X145866505Y-94515594D01*
X145783248Y-94617043D01*
X145700698Y-94771482D01*
X145649864Y-94939060D01*
X145632700Y-95113334D01*
X145637001Y-95157004D01*
X145637001Y-96140485D01*
X145611241Y-96157697D01*
X145411363Y-96357575D01*
X145254320Y-96592607D01*
X145146147Y-96853760D01*
X145091000Y-97130999D01*
X145091000Y-97413669D01*
X145146147Y-97690908D01*
X145254320Y-97952061D01*
X145411363Y-98187093D01*
X145611241Y-98386971D01*
X145846273Y-98544014D01*
X146107426Y-98652187D01*
X146384665Y-98707334D01*
X146667335Y-98707334D01*
X146944574Y-98652187D01*
X147205727Y-98544014D01*
X147440759Y-98386971D01*
X147640637Y-98187093D01*
X147797680Y-97952061D01*
X147905853Y-97690908D01*
X147961000Y-97413669D01*
X147961000Y-97130999D01*
X147905853Y-96853760D01*
X147797680Y-96592607D01*
X147758076Y-96533334D01*
X156561928Y-96533334D01*
X156561928Y-98133334D01*
X156574188Y-98257816D01*
X156610498Y-98377514D01*
X156669463Y-98487828D01*
X156748815Y-98584519D01*
X156845506Y-98663871D01*
X156955820Y-98722836D01*
X157075518Y-98759146D01*
X157200000Y-98771406D01*
X158800000Y-98771406D01*
X158924482Y-98759146D01*
X159044180Y-98722836D01*
X159154494Y-98663871D01*
X159251185Y-98584519D01*
X159330537Y-98487828D01*
X159389502Y-98377514D01*
X159425812Y-98257816D01*
X159426643Y-98249373D01*
X159625241Y-98447971D01*
X159860273Y-98605014D01*
X160121426Y-98713187D01*
X160398665Y-98768334D01*
X160681335Y-98768334D01*
X160958574Y-98713187D01*
X161219727Y-98605014D01*
X161454759Y-98447971D01*
X161654637Y-98248093D01*
X161810000Y-98015575D01*
X161965363Y-98248093D01*
X162165241Y-98447971D01*
X162400273Y-98605014D01*
X162661426Y-98713187D01*
X162938665Y-98768334D01*
X163221335Y-98768334D01*
X163498574Y-98713187D01*
X163759727Y-98605014D01*
X163994759Y-98447971D01*
X164194637Y-98248093D01*
X164350000Y-98015575D01*
X164505363Y-98248093D01*
X164705241Y-98447971D01*
X164940273Y-98605014D01*
X165201426Y-98713187D01*
X165478665Y-98768334D01*
X165761335Y-98768334D01*
X166038574Y-98713187D01*
X166299727Y-98605014D01*
X166534759Y-98447971D01*
X166734637Y-98248093D01*
X166890000Y-98015575D01*
X167045363Y-98248093D01*
X167245241Y-98447971D01*
X167480273Y-98605014D01*
X167741426Y-98713187D01*
X168018665Y-98768334D01*
X168301335Y-98768334D01*
X168578574Y-98713187D01*
X168839727Y-98605014D01*
X169074759Y-98447971D01*
X169274637Y-98248093D01*
X169430000Y-98015575D01*
X169585363Y-98248093D01*
X169785241Y-98447971D01*
X170020273Y-98605014D01*
X170281426Y-98713187D01*
X170558665Y-98768334D01*
X170841335Y-98768334D01*
X171118574Y-98713187D01*
X171379727Y-98605014D01*
X171614759Y-98447971D01*
X171814637Y-98248093D01*
X171970000Y-98015575D01*
X172125363Y-98248093D01*
X172325241Y-98447971D01*
X172560273Y-98605014D01*
X172821426Y-98713187D01*
X173098665Y-98768334D01*
X173381335Y-98768334D01*
X173658574Y-98713187D01*
X173919727Y-98605014D01*
X174154759Y-98447971D01*
X174354637Y-98248093D01*
X174510000Y-98015575D01*
X174665363Y-98248093D01*
X174865241Y-98447971D01*
X175100273Y-98605014D01*
X175361426Y-98713187D01*
X175638665Y-98768334D01*
X175921335Y-98768334D01*
X176198574Y-98713187D01*
X176459727Y-98605014D01*
X176694759Y-98447971D01*
X176894637Y-98248093D01*
X177051680Y-98013061D01*
X177159853Y-97751908D01*
X177215000Y-97474669D01*
X177215000Y-97191999D01*
X177159853Y-96914760D01*
X177051680Y-96653607D01*
X176894637Y-96418575D01*
X176694759Y-96218697D01*
X176459727Y-96061654D01*
X176198574Y-95953481D01*
X175921335Y-95898334D01*
X175638665Y-95898334D01*
X175361426Y-95953481D01*
X175100273Y-96061654D01*
X174865241Y-96218697D01*
X174665363Y-96418575D01*
X174510000Y-96651093D01*
X174354637Y-96418575D01*
X174154759Y-96218697D01*
X173919727Y-96061654D01*
X173658574Y-95953481D01*
X173381335Y-95898334D01*
X173098665Y-95898334D01*
X172821426Y-95953481D01*
X172560273Y-96061654D01*
X172325241Y-96218697D01*
X172125363Y-96418575D01*
X171970000Y-96651093D01*
X171814637Y-96418575D01*
X171614759Y-96218697D01*
X171379727Y-96061654D01*
X171118574Y-95953481D01*
X170841335Y-95898334D01*
X170558665Y-95898334D01*
X170281426Y-95953481D01*
X170020273Y-96061654D01*
X169785241Y-96218697D01*
X169585363Y-96418575D01*
X169430000Y-96651093D01*
X169274637Y-96418575D01*
X169074759Y-96218697D01*
X168839727Y-96061654D01*
X168578574Y-95953481D01*
X168301335Y-95898334D01*
X168018665Y-95898334D01*
X167741426Y-95953481D01*
X167480273Y-96061654D01*
X167245241Y-96218697D01*
X167045363Y-96418575D01*
X166890000Y-96651093D01*
X166734637Y-96418575D01*
X166534759Y-96218697D01*
X166299727Y-96061654D01*
X166038574Y-95953481D01*
X165761335Y-95898334D01*
X165478665Y-95898334D01*
X165201426Y-95953481D01*
X164940273Y-96061654D01*
X164705241Y-96218697D01*
X164505363Y-96418575D01*
X164350000Y-96651093D01*
X164194637Y-96418575D01*
X163994759Y-96218697D01*
X163759727Y-96061654D01*
X163498574Y-95953481D01*
X163221335Y-95898334D01*
X162938665Y-95898334D01*
X162661426Y-95953481D01*
X162400273Y-96061654D01*
X162165241Y-96218697D01*
X161965363Y-96418575D01*
X161810000Y-96651093D01*
X161654637Y-96418575D01*
X161454759Y-96218697D01*
X161219727Y-96061654D01*
X160958574Y-95953481D01*
X160681335Y-95898334D01*
X160398665Y-95898334D01*
X160121426Y-95953481D01*
X159860273Y-96061654D01*
X159625241Y-96218697D01*
X159426643Y-96417295D01*
X159425812Y-96408852D01*
X159389502Y-96289154D01*
X159330537Y-96178840D01*
X159251185Y-96082149D01*
X159154494Y-96002797D01*
X159044180Y-95943832D01*
X158924482Y-95907522D01*
X158800000Y-95895262D01*
X157200000Y-95895262D01*
X157075518Y-95907522D01*
X156955820Y-95943832D01*
X156845506Y-96002797D01*
X156748815Y-96082149D01*
X156669463Y-96178840D01*
X156610498Y-96289154D01*
X156574188Y-96408852D01*
X156561928Y-96533334D01*
X147758076Y-96533334D01*
X147640637Y-96357575D01*
X147440759Y-96157697D01*
X147415000Y-96140485D01*
X147415000Y-95481569D01*
X149053236Y-93843334D01*
X162103340Y-93843334D01*
X162147000Y-93847634D01*
X162190660Y-93843334D01*
X162190667Y-93843334D01*
X162321274Y-93830470D01*
X162488851Y-93779637D01*
X162643291Y-93697087D01*
X162778659Y-93585993D01*
X162806499Y-93552070D01*
X163677737Y-92680832D01*
X163711659Y-92652993D01*
X163822753Y-92517625D01*
X163905303Y-92363185D01*
X163937927Y-92255636D01*
X163956136Y-92195610D01*
X163962693Y-92129031D01*
X163969000Y-92065001D01*
X163969000Y-92064995D01*
X163973300Y-92021335D01*
X163969000Y-91977675D01*
X163969000Y-90845183D01*
X163994759Y-90827971D01*
X164194637Y-90628093D01*
X164350000Y-90395575D01*
X164505363Y-90628093D01*
X164705241Y-90827971D01*
X164940273Y-90985014D01*
X165201426Y-91093187D01*
X165478665Y-91148334D01*
X165761335Y-91148334D01*
X166038574Y-91093187D01*
X166299727Y-90985014D01*
X166534759Y-90827971D01*
X166734637Y-90628093D01*
X166890000Y-90395575D01*
X167045363Y-90628093D01*
X167245241Y-90827971D01*
X167480273Y-90985014D01*
X167741426Y-91093187D01*
X168018665Y-91148334D01*
X168301335Y-91148334D01*
X168578574Y-91093187D01*
X168839727Y-90985014D01*
X169074759Y-90827971D01*
X169274637Y-90628093D01*
X169430000Y-90395575D01*
X169585363Y-90628093D01*
X169785241Y-90827971D01*
X170020273Y-90985014D01*
X170281426Y-91093187D01*
X170558665Y-91148334D01*
X170841335Y-91148334D01*
X171118574Y-91093187D01*
X171379727Y-90985014D01*
X171614759Y-90827971D01*
X171814637Y-90628093D01*
X171970000Y-90395575D01*
X172125363Y-90628093D01*
X172325241Y-90827971D01*
X172560273Y-90985014D01*
X172821426Y-91093187D01*
X173098665Y-91148334D01*
X173381335Y-91148334D01*
X173658574Y-91093187D01*
X173919727Y-90985014D01*
X174154759Y-90827971D01*
X174354637Y-90628093D01*
X174510000Y-90395575D01*
X174665363Y-90628093D01*
X174865241Y-90827971D01*
X175100273Y-90985014D01*
X175361426Y-91093187D01*
X175638665Y-91148334D01*
X175921335Y-91148334D01*
X176198574Y-91093187D01*
X176459727Y-90985014D01*
X176694759Y-90827971D01*
X176894637Y-90628093D01*
X177051680Y-90393061D01*
X177159853Y-90131908D01*
X177215000Y-89854669D01*
X177215000Y-89571999D01*
X177159853Y-89294760D01*
X177051680Y-89033607D01*
X176894637Y-88798575D01*
X176694759Y-88598697D01*
X176459727Y-88441654D01*
X176198574Y-88333481D01*
X175921335Y-88278334D01*
X175638665Y-88278334D01*
X175361426Y-88333481D01*
X175100273Y-88441654D01*
X174865241Y-88598697D01*
X174665363Y-88798575D01*
X174510000Y-89031093D01*
X174354637Y-88798575D01*
X174154759Y-88598697D01*
X173919727Y-88441654D01*
X173658574Y-88333481D01*
X173381335Y-88278334D01*
X173098665Y-88278334D01*
X172821426Y-88333481D01*
X172560273Y-88441654D01*
X172325241Y-88598697D01*
X172125363Y-88798575D01*
X171970000Y-89031093D01*
X171814637Y-88798575D01*
X171614759Y-88598697D01*
X171379727Y-88441654D01*
X171118574Y-88333481D01*
X170841335Y-88278334D01*
X170558665Y-88278334D01*
X170281426Y-88333481D01*
X170020273Y-88441654D01*
X169785241Y-88598697D01*
X169585363Y-88798575D01*
X169430000Y-89031093D01*
X169274637Y-88798575D01*
X169074759Y-88598697D01*
X168839727Y-88441654D01*
X168578574Y-88333481D01*
X168301335Y-88278334D01*
X168018665Y-88278334D01*
X167741426Y-88333481D01*
X167480273Y-88441654D01*
X167245241Y-88598697D01*
X167045363Y-88798575D01*
X166890000Y-89031093D01*
X166734637Y-88798575D01*
X166534759Y-88598697D01*
X166299727Y-88441654D01*
X166038574Y-88333481D01*
X165761335Y-88278334D01*
X165478665Y-88278334D01*
X165201426Y-88333481D01*
X164940273Y-88441654D01*
X164705241Y-88598697D01*
X164505363Y-88798575D01*
X164350000Y-89031093D01*
X164194637Y-88798575D01*
X163994759Y-88598697D01*
X163759727Y-88441654D01*
X163498574Y-88333481D01*
X163221335Y-88278334D01*
X162938665Y-88278334D01*
X162661426Y-88333481D01*
X162400273Y-88441654D01*
X162165241Y-88598697D01*
X161965363Y-88798575D01*
X161810000Y-89031093D01*
X161654637Y-88798575D01*
X161454759Y-88598697D01*
X161219727Y-88441654D01*
X160958574Y-88333481D01*
X160681335Y-88278334D01*
X160398665Y-88278334D01*
X160121426Y-88333481D01*
X159860273Y-88441654D01*
X159625241Y-88598697D01*
X159425363Y-88798575D01*
X159270000Y-89031093D01*
X159114637Y-88798575D01*
X158914759Y-88598697D01*
X158679727Y-88441654D01*
X158418574Y-88333481D01*
X158141335Y-88278334D01*
X157858665Y-88278334D01*
X157581426Y-88333481D01*
X157320273Y-88441654D01*
X157085241Y-88598697D01*
X156885363Y-88798575D01*
X156868151Y-88824334D01*
X139650659Y-88824334D01*
X139606999Y-88820034D01*
X139563339Y-88824334D01*
X139563333Y-88824334D01*
X139465924Y-88833928D01*
X139432724Y-88837198D01*
X139331058Y-88868038D01*
X139265149Y-88888031D01*
X139110709Y-88970581D01*
X138975341Y-89081675D01*
X138947501Y-89115598D01*
X136530259Y-91532840D01*
X136496342Y-91560675D01*
X136468507Y-91594592D01*
X136468505Y-91594594D01*
X136385248Y-91696043D01*
X136302698Y-91850482D01*
X136251864Y-92018060D01*
X136234700Y-92192334D01*
X136239001Y-92236004D01*
X136239000Y-96013485D01*
X136213241Y-96030697D01*
X136013363Y-96230575D01*
X135856320Y-96465607D01*
X135748147Y-96726760D01*
X135693000Y-97003999D01*
X131797554Y-97003999D01*
X131668138Y-96810315D01*
X131189685Y-96331862D01*
X130627082Y-95955943D01*
X130001952Y-95697006D01*
X129338318Y-95565000D01*
X128661682Y-95565000D01*
X128127000Y-95671356D01*
X128127000Y-77127000D01*
X147231666Y-77127000D01*
X147231666Y-77671652D01*
G36*
X161965363Y-90628093D02*
G01*
X162165241Y-90827971D01*
X162191001Y-90845183D01*
X162191000Y-91653099D01*
X161778765Y-92065334D01*
X160488588Y-92065334D01*
X160492659Y-92061993D01*
X160520498Y-92028071D01*
X161137742Y-91410828D01*
X161171659Y-91382993D01*
X161282753Y-91247625D01*
X161365303Y-91093185D01*
X161398116Y-90985014D01*
X161416136Y-90925609D01*
X161423709Y-90848718D01*
X161454759Y-90827971D01*
X161654637Y-90628093D01*
X161810000Y-90395575D01*
X161965363Y-90628093D01*
G37*
X161965363Y-90628093D02*
X162165241Y-90827971D01*
X162191001Y-90845183D01*
X162191000Y-91653099D01*
X161778765Y-92065334D01*
X160488588Y-92065334D01*
X160492659Y-92061993D01*
X160520498Y-92028071D01*
X161137742Y-91410828D01*
X161171659Y-91382993D01*
X161282753Y-91247625D01*
X161365303Y-91093185D01*
X161398116Y-90985014D01*
X161416136Y-90925609D01*
X161423709Y-90848718D01*
X161454759Y-90827971D01*
X161654637Y-90628093D01*
X161810000Y-90395575D01*
X161965363Y-90628093D01*
G36*
X159367393Y-90541334D02*
G01*
X159172607Y-90541334D01*
X159270000Y-90395575D01*
X159367393Y-90541334D01*
G37*
X159367393Y-90541334D02*
X159172607Y-90541334D01*
X159270000Y-90395575D01*
X159367393Y-90541334D01*
M02*
